<svg version="1.1" viewBox="0.0 0.0 600.0 371.0" fill="none" stroke="none" stroke-linecap="square" stroke-miterlimit="10" width="600" height="371" xmlns:xlink="http://www.w3.org/1999/xlink" xmlns="http://www.w3.org/2000/svg"><path fill="#ffffff" d="M0 0L600.0 0L600.0 371.0L0 371.0L0 0Z" fill-rule="nonzero"/><path stroke="#333333" stroke-width="1.0" stroke-linecap="butt" d="M78.5 331.5L581.5 331.5" fill-rule="nonzero"/><path stroke="#ffffff" stroke-width="1.0" stroke-linecap="butt" d="M78.5 238.5L581.5 238.5" fill-rule="nonzero"/><path stroke="#ffffff" stroke-width="1.0" stroke-linecap="butt" d="M78.5 146.5L581.5 146.5" fill-rule="nonzero"/><path stroke="#ffffff" stroke-width="1.0" stroke-linecap="butt" d="M78.5 53.5L581.5 53.5" fill-rule="nonzero"/><clipPath id="id_0"><path d="M78.55 53.416668L581.45 53.416668L581.45 331.45L78.55 331.45L78.55 53.416668Z" clip-rule="nonzero"/></clipPath><path stroke="#000000" stroke-width="0.0" stroke-linecap="butt" stroke-opacity="0.0" clip-path="url(#id_0)" d="M179.0 331.0L131.0 331.0L131.0 315.0C131.0 313.89542 131.89543 313.0 133.0 313.0L177.0 313.0C178.10457 313.0 179.0 313.89542 179.0 315.0Z" fill-rule="nonzero"/><path fill="#4285f4" clip-path="url(#id_0)" d="M179.0 331.0L131.0 331.0L131.0 315.0C131.0 313.89542 131.89543 313.0 133.0 313.0L177.0 313.0C178.10457 313.0 179.0 313.89542 179.0 315.0Z" fill-rule="nonzero"/><path stroke="#000000" stroke-width="0.0" stroke-linecap="butt" stroke-opacity="0.0" clip-path="url(#id_0)" d="M329.0 331.0L281.0 331.0L281.0 288.0C281.0 286.89542 281.89542 286.0 283.0 286.0L327.0 286.0C328.10458 286.0 329.0 286.89542 329.0 288.0Z" fill-rule="nonzero"/><path fill="#4285f4" clip-path="url(#id_0)" d="M329.0 331.0L281.0 331.0L281.0 288.0C281.0 286.89542 281.89542 286.0 283.0 286.0L327.0 286.0C328.10458 286.0 329.0 286.89542 329.0 288.0Z" fill-rule="nonzero"/><path stroke="#000000" stroke-width="0.0" stroke-linecap="butt" stroke-opacity="0.0" clip-path="url(#id_0)" d="M479.0 331.0L431.0 331.0L431.0 280.0C431.0 278.89542 431.89542 278.0 433.0 278.0L477.0 278.0C478.10458 278.0 479.0 278.89542 479.0 280.0Z" fill-rule="nonzero"/><path fill="#4285f4" clip-path="url(#id_0)" d="M479.0 331.0L431.0 331.0L431.0 280.0C431.0 278.89542 431.89542 278.0 433.0 278.0L477.0 278.0C478.10458 278.0 479.0 278.89542 479.0 280.0Z" fill-rule="nonzero"/><path stroke="#000000" stroke-width="0.0" stroke-linecap="butt" stroke-opacity="0.0" clip-path="url(#id_0)" d="M228.0 331.0L180.0 331.0L180.0 265.0C180.0 263.89542 180.89543 263.0 182.0 263.0L226.0 263.0C227.10457 263.0 228.0 263.89542 228.0 265.0Z" fill-rule="nonzero"/><path fill="#db4437" clip-path="url(#id_0)" d="M228.0 331.0L180.0 331.0L180.0 265.0C180.0 263.89542 180.89543 263.0 182.0 263.0L226.0 263.0C227.10457 263.0 228.0 263.89542 228.0 265.0Z" fill-rule="nonzero"/><path stroke="#000000" stroke-width="0.0" stroke-linecap="butt" stroke-opacity="0.0" clip-path="url(#id_0)" d="M378.0 331.0L330.0 331.0L330.0 64.0C330.0 62.89543 330.89542 62.0 332.0 62.0L376.0 62.0C377.10458 62.0 378.0 62.89543 378.0 64.0Z" fill-rule="nonzero"/><path fill="#db4437" clip-path="url(#id_0)" d="M378.0 331.0L330.0 331.0L330.0 64.0C330.0 62.89543 330.89542 62.0 332.0 62.0L376.0 62.0C377.10458 62.0 378.0 62.89543 378.0 64.0Z" fill-rule="nonzero"/><path stroke="#000000" stroke-width="0.0" stroke-linecap="butt" stroke-opacity="0.0" clip-path="url(#id_0)" d="M528.0 331.0L480.0 331.0L480.0 165.0C480.0 163.89543 480.89542 163.0 482.0 163.0L526.0 163.0C527.10455 163.0 528.0 163.89543 528.0 165.0Z" fill-rule="nonzero"/><path fill="#db4437" clip-path="url(#id_0)" d="M528.0 331.0L480.0 331.0L480.0 165.0C480.0 163.89543 480.89542 163.0 482.0 163.0L526.0 163.0C527.10455 163.0 528.0 163.89543 528.0 165.0Z" fill-rule="nonzero"/><path fill="#424242" d="M26.753138 328.68335Q26.331263 330.12085 25.721888 330.79272Q25.112513 331.44897 24.221888 331.44897Q23.221888 331.44897 22.565638 330.6521Q21.893763 329.8396 21.893763 328.54272Q21.893763 327.66772 22.237513 326.98022Q22.581263 326.29272 23.175013 325.91772Q23.768763 325.5271 24.487513 325.5271L24.487513 326.66772Q23.706263 326.66772 23.268763 327.16772Q22.831263 327.6521 22.831263 328.54272Q22.831263 329.37085 23.206263 329.8396Q23.565638 330.30835 24.206263 330.30835Q24.737513 330.30835 25.096888 329.87085Q25.456263 329.41772 25.753138 328.35522Q26.050013 327.29272 26.409388 326.69897Q26.768763 326.0896 27.253138 325.80835Q27.737513 325.51147 28.378138 325.51147Q29.425013 325.51147 30.050013 326.32397Q30.675013 327.13647 30.675013 328.48022Q30.675013 329.37085 30.331263 330.13647Q29.987513 330.88647 29.409388 331.30835Q28.815638 331.7146 28.081263 331.7146L28.081263 330.5896Q28.846888 330.5896 29.300013 330.01147Q29.753138 329.43335 29.753138 328.48022Q29.753138 327.5896 29.393763 327.12085Q29.018763 326.6521 28.393763 326.6521Q27.768763 326.6521 27.425013 327.0896Q27.081263 327.5271 26.753138 328.68335ZM27.456263 319.01147Q28.893763 319.01147 29.784388 319.66772Q30.675013 320.32397 30.675013 321.4646Q30.675013 322.62085 29.940638 323.2771L32.98751 323.2771L32.98751 324.35522L24.206263 324.35522L24.206263 323.37085L24.909388 323.32397Q24.096888 322.6521 24.096888 321.48022Q24.096888 320.3396 24.956263 319.68335Q25.815638 319.01147 27.346888 319.01147L27.456263 319.01147ZM27.331263 320.0896Q26.253138 320.0896 25.643763 320.55835Q25.018763 321.01147 25.018763 321.80835Q25.018763 322.79272 25.878138 323.2771L28.909388 323.2771Q29.784388 322.79272 29.784388 321.79272Q29.784388 321.01147 29.175013 320.55835Q28.550013 320.0896 27.331263 320.0896ZM30.675013 314.73022Q30.675013 316.0271 29.831263 316.8396Q28.971888 317.63647 27.550013 317.63647L27.362513 317.63647Q26.409388 317.63647 25.675013 317.2771Q24.925013 316.91772 24.518763 316.2771Q24.096888 315.62085 24.096888 314.87085Q24.096888 313.63647 24.909388 312.94897Q25.721888 312.26147 27.237513 312.26147L27.690638 312.26147L27.690638 316.55835Q28.628138 316.5271 29.206263 316.01147Q29.784388 315.48022 29.784388 314.66772Q29.784388 314.10522 29.550013 313.7146Q29.315638 313.30835 28.925013 312.99585L29.440638 312.3396Q30.675013 313.13647 30.675013 314.73022ZM24.987513 314.87085Q24.987513 315.5271 25.471888 315.98022Q25.940638 316.41772 26.800013 316.51147L26.800013 313.3396L26.721888 313.3396Q25.893763 313.38647 25.440638 313.79272Q24.987513 314.18335 24.987513 314.87085ZM30.675013 308.73022Q30.675013 310.0271 29.831263 310.8396Q28.971888 311.63647 27.550013 311.63647L27.362513 311.63647Q26.409388 311.63647 25.675013 311.2771Q24.925013 310.91772 24.518763 310.2771Q24.096888 309.62085 24.096888 308.87085Q24.096888 307.63647 24.909388 306.94897Q25.721888 306.26147 27.237513 306.26147L27.690638 306.26147L27.690638 310.55835Q28.628138 310.5271 29.206263 310.01147Q29.784388 309.48022 29.784388 308.66772Q29.784388 308.10522 29.550013 307.7146Q29.315638 307.30835 28.925013 306.99585L29.440638 306.3396Q30.675013 307.13647 30.675013 308.73022ZM24.987513 308.87085Q24.987513 309.5271 25.471888 309.98022Q25.940638 310.41772 26.800013 310.51147L26.800013 307.3396L26.721888 307.3396Q25.893763 307.38647 25.440638 307.79272Q24.987513 308.18335 24.987513 308.87085ZM27.331263 305.62085Q25.862513 305.62085 24.987513 304.93335Q24.096888 304.24585 24.096888 303.12085Q24.096888 302.01147 24.846888 301.35522L21.550013 301.35522L21.550013 300.2771L30.550013 300.2771L30.550013 301.2771L29.862513 301.32397Q30.675013 301.98022 30.675013 303.13647Q30.675013 304.23022 29.768763 304.93335Q28.862513 305.62085 27.409388 305.62085L27.331263 305.62085ZM27.456263 304.54272Q28.534388 304.54272 29.143763 304.10522Q29.753138 303.6521 29.753138 302.87085Q29.753138 301.8396 28.815638 301.35522L25.909388 301.35522Q25.018763 301.8396 25.018763 302.85522Q25.018763 303.6521 25.628138 304.10522Q26.237513 304.54272 27.456263 304.54272ZM27.081263 295.4021Q25.768763 295.4021 24.550013 295.05835Q23.331263 294.69897 22.331263 293.99585Q21.331263 293.29272 20.925013 292.5271L21.643763 292.30835Q22.300013 293.16772 23.643763 293.7146Q24.987513 294.26147 26.659388 294.30835L27.159388 294.32397Q29.425013 294.32397 31.081263 293.49585Q32.08126 292.99585 32.64376 292.30835L33.30001 292.5271Q32.878136 293.30835 31.846888 294.0271Q29.862513 295.4021 27.081263 295.4021ZM27.331263 291.62085Q25.862513 291.62085 24.987513 290.93335Q24.096888 290.24585 24.096888 289.12085Q24.096888 288.01147 24.846888 287.35522L21.550013 287.35522L21.550013 286.2771L30.550013 286.2771L30.550013 287.2771L29.862513 287.32397Q30.675013 287.98022 30.675013 289.13647Q30.675013 290.23022 29.768763 290.93335Q28.862513 291.62085 27.409388 291.62085L27.331263 291.62085ZM27.456263 290.54272Q28.534388 290.54272 29.143763 290.10522Q29.753138 289.6521 29.753138 288.87085Q29.753138 287.8396 28.815638 287.35522L25.909388 287.35522Q25.018763 287.8396 25.018763 288.85522Q25.018763 289.6521 25.628138 290.10522Q26.237513 290.54272 27.456263 290.54272ZM30.675013 281.73022Q30.675013 283.0271 29.831263 283.8396Q28.971888 284.63647 27.550013 284.63647L27.362513 284.63647Q26.409388 284.63647 25.675013 284.2771Q24.925013 283.91772 24.518763 283.2771Q24.096888 282.62085 24.096888 281.87085Q24.096888 280.63647 24.909388 279.94897Q25.721888 279.26147 27.237513 279.26147L27.690638 279.26147L27.690638 283.55835Q28.628138 283.5271 29.206263 283.01147Q29.784388 282.48022 29.784388 281.66772Q29.784388 281.10522 29.550013 280.7146Q29.315638 280.30835 28.925013 279.99585L29.440638 279.3396Q30.675013 280.13647 30.675013 281.73022ZM24.987513 281.87085Q24.987513 282.5271 25.471888 282.98022Q25.940638 283.41772 26.800013 283.51147L26.800013 280.3396L26.721888 280.3396Q25.893763 280.38647 25.440638 280.79272Q24.987513 281.18335 24.987513 281.87085ZM29.784388 275.82397Q29.784388 275.24585 29.440638 274.80835Q29.081263 274.37085 28.550013 274.32397L28.550013 273.29272Q29.096888 273.32397 29.596888 273.68335Q30.081263 274.0271 30.378138 274.60522Q30.675013 275.16772 30.675013 275.82397Q30.675013 277.12085 29.815638 277.88647Q28.940638 278.63647 27.440638 278.63647L27.253138 278.63647Q26.331263 278.63647 25.612513 278.30835Q24.893763 277.9646 24.503138 277.3396Q24.096888 276.69897 24.096888 275.82397Q24.096888 274.76147 24.737513 274.05835Q25.362513 273.3396 26.393763 273.29272L26.393763 274.32397Q25.768763 274.37085 25.378138 274.79272Q24.987513 275.2146 24.987513 275.82397Q24.987513 276.6521 25.581263 277.10522Q26.175013 277.55835 27.300013 277.55835L27.503138 277.55835Q28.596888 277.55835 29.190638 277.10522Q29.784388 276.6521 29.784388 275.82397ZM27.315638 272.6521Q26.393763 272.6521 25.643763 272.29272Q24.893763 271.91772 24.503138 271.26147Q24.096888 270.60522 24.096888 269.7771Q24.096888 268.48022 24.987513 267.68335Q25.878138 266.87085 27.378138 266.87085L27.456263 266.87085Q28.378138 266.87085 29.112513 267.23022Q29.846888 267.5896 30.268763 268.24585Q30.675013 268.9021 30.675013 269.76147Q30.675013 271.04272 29.784388 271.85522Q28.878138 272.6521 27.393763 272.6521L27.315638 272.6521ZM27.456263 271.55835Q28.503138 271.55835 29.143763 271.07397Q29.784388 270.57397 29.784388 269.76147Q29.784388 268.93335 29.143763 268.44897Q28.487513 267.9646 27.315638 267.9646Q26.284388 267.9646 25.643763 268.4646Q24.987513 268.94897 24.987513 269.7771Q24.987513 270.57397 25.628138 271.07397Q26.253138 271.55835 27.456263 271.55835ZM27.331263 265.62085Q25.862513 265.62085 24.987513 264.93335Q24.096888 264.24585 24.096888 263.12085Q24.096888 262.01147 24.846888 261.35522L21.550013 261.35522L21.550013 260.2771L30.550013 260.2771L30.550013 261.2771L29.862513 261.32397Q30.675013 261.98022 30.675013 263.13647Q30.675013 264.23022 29.768763 264.93335Q28.862513 265.62085 27.409388 265.62085L27.331263 265.62085ZM27.456263 264.54272Q28.534388 264.54272 29.143763 264.10522Q29.753138 263.6521 29.753138 262.87085Q29.753138 261.8396 28.815638 261.35522L25.909388 261.35522Q25.018763 261.8396 25.018763 262.85522Q25.018763 263.6521 25.628138 264.10522Q26.237513 264.54272 27.456263 264.54272ZM30.675013 255.73021Q30.675013 257.0271 29.831263 257.8396Q28.971888 258.63647 27.550013 258.63647L27.362513 258.63647Q26.409388 258.63647 25.675013 258.2771Q24.925013 257.91772 24.518763 257.2771Q24.096888 256.62085 24.096888 255.87083Q24.096888 254.63646 24.909388 253.94896Q25.721888 253.26146 27.237513 253.26146L27.690638 253.26146L27.690638 257.55835Q28.628138 257.5271 29.206263 257.01147Q29.784388 256.48022 29.784388 255.66771Q29.784388 255.10521 29.550013 254.71458Q29.315638 254.30833 28.925013 253.99583L29.440638 253.33958Q30.675013 254.13646 30.675013 255.73021ZM24.987513 255.87083Q24.987513 256.5271 25.471888 256.98022Q25.940638 257.41772 26.800013 257.51147L26.800013 254.33958L26.721888 254.33958Q25.893763 254.38646 25.440638 254.79271Q24.987513 255.18333 24.987513 255.87083ZM27.081263 252.40208Q25.768763 252.40208 24.550013 252.05833Q23.331263 251.69896 22.331263 250.99583Q21.331263 250.29271 20.925013 249.52708L21.643763 249.30833Q22.300013 250.16771 23.643763 250.71458Q24.987513 251.26146 26.659388 251.30833L27.159388 251.32396Q29.425013 251.32396 31.081263 250.49583Q32.08126 249.99583 32.64376 249.30833L33.30001 249.52708Q32.878136 250.30833 31.846888 251.02708Q29.862513 252.40208 27.081263 252.40208ZM27.143763 245.85521Q28.456263 245.85521 29.659388 246.19896Q30.846888 246.54271 31.862513 247.26146Q32.878136 247.96458 33.30001 248.73021L32.64376 248.96458Q31.956263 248.05833 30.503138 247.51146Q29.034388 246.96458 27.268763 246.94896L27.081263 246.94896Q25.846888 246.94896 24.784388 247.21458Q23.721888 247.46458 22.893763 247.93333Q22.050013 248.38646 21.581263 248.96458L20.925013 248.73021Q21.346888 247.96458 22.346888 247.26146Q23.346888 246.55833 24.565638 246.21458Q25.768763 245.85521 27.143763 245.85521ZM29.784388 238.82396Q29.784388 238.24583 29.440638 237.80833Q29.081263 237.37083 28.550013 237.32396L28.550013 236.29271Q29.096888 236.32396 29.596888 236.68333Q30.081263 237.02708 30.378138 237.60521Q30.675013 238.16771 30.675013 238.82396Q30.675013 240.12083 29.815638 240.88646Q28.940638 241.63646 27.440638 241.63646L27.253138 241.63646Q26.331263 241.63646 25.612513 241.30833Q24.893763 240.96458 24.503138 240.33958Q24.096888 239.69896 24.096888 238.82396Q24.096888 237.76146 24.737513 237.05833Q25.362513 236.33958 26.393763 236.29271L26.393763 237.32396Q25.768763 237.37083 25.378138 237.79271Q24.987513 238.21458 24.987513 238.82396Q24.987513 239.65208 25.581263 240.10521Q26.175013 240.55833 27.300013 240.55833L27.503138 240.55833Q28.596888 240.55833 29.190638 240.10521Q29.784388 239.65208 29.784388 238.82396ZM30.550013 231.44896Q30.362513 231.54271 29.878138 231.60521Q30.675013 232.35521 30.675013 233.40208Q30.675013 234.33958 30.143763 234.94896Q29.612513 235.54271 28.784388 235.54271Q27.800013 235.54271 27.253138 234.79271Q26.706263 234.04271 26.706263 232.66771L26.706263 231.62083L26.206263 231.62083Q25.643763 231.62083 25.315638 231.96458Q24.971888 232.29271 24.971888 232.96458Q24.971888 233.54271 25.268763 233.93333Q25.550013 234.32396 25.971888 234.32396L25.971888 235.41771Q25.487513 235.41771 25.050013 235.08958Q24.612513 234.74583 24.362513 234.16771Q24.096888 233.58958 24.096888 232.90208Q24.096888 231.79271 24.643763 231.18333Q25.190638 230.55833 26.143763 230.52708L29.065638 230.52708Q29.940638 230.52708 30.456263 230.30833L30.550013 230.30833L30.550013 231.44896ZM29.721888 233.24583Q29.721888 232.73021 29.456263 232.27708Q29.190638 231.82396 28.768763 231.62083L27.471888 231.62083L27.471888 232.46458Q27.471888 234.46458 28.643763 234.46458Q29.143763 234.46458 29.440638 234.12083Q29.721888 233.77708 29.721888 233.24583ZM30.550013 227.18333L30.550013 228.26146L21.550013 228.26146L21.550013 227.18333L30.550013 227.18333ZM30.550013 224.18333L30.550013 225.26146L21.550013 225.26146L21.550013 224.18333L30.550013 224.18333ZM28.862513 218.66771Q28.425013 218.66771 28.190638 219.01146Q27.940638 219.33958 27.768763 220.16771Q27.596888 220.98021 27.346888 221.46458Q27.096888 221.94896 26.768763 222.18333Q26.425013 222.40208 25.956263 222.40208Q25.175013 222.40208 24.643763 221.74583Q24.096888 221.08958 24.096888 220.05833Q24.096888 218.98021 24.659388 218.32396Q25.206263 217.65208 26.065638 217.65208L26.065638 218.73021Q25.628138 218.73021 25.315638 219.12083Q24.987513 219.49583 24.987513 220.05833Q24.987513 220.65208 25.253138 220.99583Q25.503138 221.32396 25.909388 221.32396Q26.300013 221.32396 26.503138 221.01146Q26.706263 220.69896 26.893763 219.88646Q27.065638 219.07396 27.315638 218.57396Q27.565638 218.07396 27.925013 217.83958Q28.284388 217.58958 28.784388 217.58958Q29.643763 217.58958 30.159388 218.27708Q30.675013 218.94896 30.675013 220.02708Q30.675013 220.79271 30.409388 221.38646Q30.128138 221.96458 29.643763 222.29271Q29.159388 222.62083 28.596888 222.62083L28.596888 221.54271Q29.143763 221.51146 29.471888 221.10521Q29.784388 220.69896 29.784388 220.02708Q29.784388 219.41771 29.534388 219.04271Q29.284388 218.66771 28.862513 218.66771ZM27.456263 208.01146Q28.893763 208.01146 29.784388 208.66771Q30.675013 209.32396 30.675013 210.46458Q30.675013 211.62083 29.940638 212.27708L32.98751 212.27708L32.98751 213.35521L24.206263 213.35521L24.206263 212.37083L24.909388 212.32396Q24.096888 211.65208 24.096888 210.48021Q24.096888 209.33958 24.956263 208.68333Q25.815638 208.01146 27.346888 208.01146L27.456263 208.01146ZM27.331263 209.08958Q26.253138 209.08958 25.643763 209.55833Q25.018763 210.01146 25.018763 210.80833Q25.018763 211.79271 25.878138 212.27708L28.909388 212.27708Q29.784388 211.79271 29.784388 210.79271Q29.784388 210.01146 29.175013 209.55833Q28.550013 209.08958 27.331263 209.08958ZM30.675013 203.73021Q30.675013 205.02708 29.831263 205.83958Q28.971888 206.63646 27.550013 206.63646L27.362513 206.63646Q26.409388 206.63646 25.675013 206.27708Q24.925013 205.91771 24.518763 205.27708Q24.096888 204.62083 24.096888 203.87083Q24.096888 202.63646 24.909388 201.94896Q25.721888 201.26146 27.237513 201.26146L27.690638 201.26146L27.690638 205.55833Q28.628138 205.52708 29.206263 205.01146Q29.784388 204.48021 29.784388 203.66771Q29.784388 203.10521 29.550013 202.71458Q29.315638 202.30833 28.925013 201.99583L29.440638 201.33958Q30.675013 202.13646 30.675013 203.73021ZM24.987513 203.87083Q24.987513 204.52708 25.471888 204.98021Q25.940638 205.41771 26.800013 205.51146L26.800013 202.33958L26.721888 202.33958Q25.893763 202.38646 25.440638 202.79271Q24.987513 203.18333 24.987513 203.87083ZM25.175013 197.29271Q25.143763 197.54271 25.143763 197.82396Q25.143763 198.90208 26.050013 199.27708L30.550013 199.27708L30.550013 200.35521L24.206263 200.35521L24.206263 199.30833L24.940638 199.29271Q24.096888 198.76146 24.096888 197.77708Q24.096888 197.46458 24.175013 197.29271L25.175013 197.29271ZM28.862513 189.66771Q28.425013 189.66771 28.190638 190.01146Q27.940638 190.33958 27.768763 191.16771Q27.596888 191.98021 27.346888 192.46458Q27.096888 192.94896 26.768763 193.18333Q26.425013 193.40208 25.956263 193.40208Q25.175013 193.40208 24.643763 192.74583Q24.096888 192.08958 24.096888 191.05833Q24.096888 189.98021 24.659388 189.32396Q25.206263 188.65208 26.065638 188.65208L26.065638 189.73021Q25.628138 189.73021 25.315638 190.12083Q24.987513 190.49583 24.987513 191.05833Q24.987513 191.65208 25.253138 191.99583Q25.503138 192.32396 25.909388 192.32396Q26.300013 192.32396 26.503138 192.01146Q26.706263 191.69896 26.893763 190.88646Q27.065638 190.07396 27.315638 189.57396Q27.565638 189.07396 27.925013 188.83958Q28.284388 188.58958 28.784388 188.58958Q29.643763 188.58958 30.159388 189.27708Q30.675013 189.94896 30.675013 191.02708Q30.675013 191.79271 30.409388 192.38646Q30.128138 192.96458 29.643763 193.29271Q29.159388 193.62083 28.596888 193.62083L28.596888 192.54271Q29.143763 192.51146 29.471888 192.10521Q29.784388 191.69896 29.784388 191.02708Q29.784388 190.41771 29.534388 190.04271Q29.284388 189.66771 28.862513 189.66771ZM30.675013 184.73021Q30.675013 186.02708 29.831263 186.83958Q28.971888 187.63646 27.550013 187.63646L27.362513 187.63646Q26.409388 187.63646 25.675013 187.27708Q24.925013 186.91771 24.518763 186.27708Q24.096888 185.62083 24.096888 184.87083Q24.096888 183.63646 24.909388 182.94896Q25.721888 182.26146 27.237513 182.26146L27.690638 182.26146L27.690638 186.55833Q28.628138 186.52708 29.206263 186.01146Q29.784388 185.48021 29.784388 184.66771Q29.784388 184.10521 29.550013 183.71458Q29.315638 183.30833 28.925013 182.99583L29.440638 182.33958Q30.675013 183.13646 30.675013 184.73021ZM24.987513 184.87083Q24.987513 185.52708 25.471888 185.98021Q25.940638 186.41771 26.800013 186.51146L26.800013 183.33958L26.721888 183.33958Q25.893763 183.38646 25.440638 183.79271Q24.987513 184.18333 24.987513 184.87083ZM29.784388 178.82396Q29.784388 178.24583 29.440638 177.80833Q29.081263 177.37083 28.550013 177.32396L28.550013 176.29271Q29.096888 176.32396 29.596888 176.68333Q30.081263 177.02708 30.378138 177.60521Q30.675013 178.16771 30.675013 178.82396Q30.675013 180.12083 29.815638 180.88646Q28.940638 181.63646 27.440638 181.63646L27.253138 181.63646Q26.331263 181.63646 25.612513 181.30833Q24.893763 180.96458 24.503138 180.33958Q24.096888 179.69896 24.096888 178.82396Q24.096888 177.76146 24.737513 177.05833Q25.362513 176.33958 26.393763 176.29271L26.393763 177.32396Q25.768763 177.37083 25.378138 177.79271Q24.987513 178.21458 24.987513 178.82396Q24.987513 179.65208 25.581263 180.10521Q26.175013 180.55833 27.300013 180.55833L27.503138 180.55833Q28.596888 180.55833 29.190638 180.10521Q29.784388 179.65208 29.784388 178.82396ZM27.315638 175.65208Q26.393763 175.65208 25.643763 175.29271Q24.893763 174.91771 24.503138 174.26146Q24.096888 173.60521 24.096888 172.77708Q24.096888 171.48021 24.987513 170.68333Q25.878138 169.87083 27.378138 169.87083L27.456263 169.87083Q28.378138 169.87083 29.112513 170.23021Q29.846888 170.58958 30.268763 171.24583Q30.675013 171.90208 30.675013 172.76146Q30.675013 174.04271 29.784388 174.85521Q28.878138 175.65208 27.393763 175.65208L27.315638 175.65208ZM27.456263 174.55833Q28.503138 174.55833 29.143763 174.07396Q29.784388 173.57396 29.784388 172.76146Q29.784388 171.93333 29.143763 171.44896Q28.487513 170.96458 27.315638 170.96458Q26.284388 170.96458 25.643763 171.46458Q24.987513 171.94896 24.987513 172.77708Q24.987513 173.57396 25.628138 174.07396Q26.253138 174.55833 27.456263 174.55833ZM24.206263 167.33958L25.003138 167.30833Q24.096888 166.57396 24.096888 165.40208Q24.096888 163.38646 26.362513 163.37083L30.550013 163.37083L30.550013 164.46458L26.346888 164.46458Q25.675013 164.46458 25.346888 164.77708Q25.018763 165.07396 25.018763 165.73021Q25.018763 166.26146 25.300013 166.66771Q25.581263 167.05833 26.034388 167.27708L30.550013 167.27708L30.550013 168.35521L24.206263 168.35521L24.206263 167.33958ZM27.331263 161.62083Q25.862513 161.62083 24.987513 160.93333Q24.096888 160.24583 24.096888 159.12083Q24.096888 158.01146 24.846888 157.35521L21.550013 157.35521L21.550013 156.27708L30.550013 156.27708L30.550013 157.27708L29.862513 157.32396Q30.675013 157.98021 30.675013 159.13646Q30.675013 160.23021 29.768763 160.93333Q28.862513 161.62083 27.409388 161.62083L27.331263 161.62083ZM27.456263 160.54271Q28.534388 160.54271 29.143763 160.10521Q29.753138 159.65208 29.753138 158.87083Q29.753138 157.83958 28.815638 157.35521L25.909388 157.35521Q25.018763 157.83958 25.018763 158.85521Q25.018763 159.65208 25.628138 160.10521Q26.237513 160.54271 27.456263 160.54271ZM32.253136 154.40208L31.831263 155.01146Q31.065638 154.46458 30.237513 154.43333L29.268763 154.43333L29.268763 153.37083L30.112513 153.37083Q30.706263 153.37083 31.300013 153.66771Q31.893763 153.96458 32.253136 154.40208ZM24.971888 148.27708Q24.096888 147.55833 24.096888 146.40208Q24.096888 144.38646 26.362513 144.37083L30.550013 144.37083L30.550013 145.46458L26.346888 145.46458Q25.675013 145.46458 25.346888 145.77708Q25.018763 146.07396 25.018763 146.73021Q25.018763 147.26146 25.300013 147.66771Q25.581263 148.05833 26.034388 148.27708L30.550013 148.27708L30.550013 149.35521L21.550013 149.35521L21.550013 148.27708L24.971888 148.27708ZM30.550013 141.18333L30.550013 142.26146L24.206263 142.26146L24.206263 141.18333L30.550013 141.18333ZM22.534388 142.35521Q22.268763 142.35521 22.081263 142.19896Q21.893763 142.02708 21.893763 141.71458Q21.893763 141.40208 22.081263 141.24583Q22.268763 141.07396 22.534388 141.07396Q22.784388 141.07396 22.971888 141.24583Q23.143763 141.40208 23.143763 141.71458Q23.143763 142.02708 22.971888 142.19896Q22.784388 142.35521 22.534388 142.35521ZM27.331263 139.62083Q25.846888 139.62083 24.971888 138.93333Q24.096888 138.24583 24.096888 137.12083Q24.096888 135.96458 24.909388 135.30833L24.206263 135.26146L24.206263 134.26146L30.393763 134.26146Q31.628138 134.26146 32.33126 134.99583Q33.05001 135.73021 33.05001 136.94896Q33.05001 137.63646 32.753136 138.29271Q32.45626 138.94896 31.956263 139.29271L31.300013 138.73021Q32.159386 138.04271 32.159386 137.02708Q32.159386 136.24583 31.706263 135.80833Q31.268763 135.35521 30.456263 135.35521L29.909388 135.35521Q30.675013 136.01146 30.675013 137.13646Q30.675013 138.24583 29.784388 138.93333Q28.878138 139.62083 27.331263 139.62083ZM27.456263 138.52708Q28.518763 138.52708 29.143763 138.08958Q29.753138 137.65208 29.753138 136.85521Q29.753138 135.83958 28.815638 135.35521L25.925013 135.35521Q25.018763 135.85521 25.018763 136.85521Q25.018763 137.63646 25.628138 138.08958Q26.237513 138.52708 27.456263 138.52708ZM24.971888 131.27708Q24.096888 130.55833 24.096888 129.40208Q24.096888 127.38646 26.362513 127.370834L30.550013 127.370834L30.550013 128.46458L26.346888 128.46458Q25.675013 128.46458 25.346888 128.77708Q25.018763 129.07396 25.018763 129.73021Q25.018763 130.26146 25.300013 130.66771Q25.581263 131.05833 26.034388 131.27708L30.550013 131.27708L30.550013 132.35521L21.550013 132.35521L21.550013 131.27708L24.971888 131.27708ZM30.675013 122.73021Q30.675013 124.027084 29.831263 124.839584Q28.971888 125.63646 27.550013 125.63646L27.362513 125.63646Q26.409388 125.63646 25.675013 125.277084Q24.925013 124.91771 24.518763 124.277084Q24.096888 123.620834 24.096888 122.870834Q24.096888 121.63646 24.909388 120.94896Q25.721888 120.26146 27.237513 120.26146L27.690638 120.26146L27.690638 124.558334Q28.628138 124.527084 29.206263 124.01146Q29.784388 123.48021 29.784388 122.66771Q29.784388 122.10521 29.550013 121.714584Q29.315638 121.308334 28.925013 120.995834L29.440638 120.339584Q30.675013 121.13646 30.675013 122.73021ZM24.987513 122.870834Q24.987513 123.527084 25.471888 123.98021Q25.940638 124.41771 26.800013 124.51146L26.800013 121.339584L26.721888 121.339584Q25.893763 121.38646 25.440638 121.79271Q24.987513 122.183334 24.987513 122.870834ZM25.175013 116.29271Q25.143763 116.54271 25.143763 116.82396Q25.143763 117.902084 26.050013 118.277084L30.550013 118.277084L30.550013 119.35521L24.206263 119.35521L24.206263 118.308334L24.940638 118.29271Q24.096888 117.76146 24.096888 116.777084Q24.096888 116.464584 24.175013 116.29271L25.175013 116.29271ZM30.550013 111.18335L30.550013 112.261475L24.206263 112.261475L24.206263 111.18335L30.550013 111.18335ZM22.534388 112.355225Q22.268763 112.355225 22.081263 112.198975Q21.893763 112.0271 21.893763 111.7146Q21.893763 111.4021 22.081263 111.24585Q22.268763 111.073975 22.534388 111.073975Q22.784388 111.073975 22.971888 111.24585Q23.143763 111.4021 23.143763 111.7146Q23.143763 112.0271 22.971888 112.198975Q22.784388 112.355225 22.534388 112.355225ZM28.862513 105.667725Q28.425013 105.667725 28.190638 106.011475Q27.940638 106.3396 27.768763 107.167725Q27.596888 107.980225 27.346888 108.4646Q27.096888 108.948975 26.768763 109.18335Q26.425013 109.4021 25.956263 109.4021Q25.175013 109.4021 24.643763 108.74585Q24.096888 108.0896 24.096888 107.05835Q24.096888 105.980225 24.659388 105.323975Q25.206263 104.6521 26.065638 104.6521L26.065638 105.730225Q25.628138 105.730225 25.315638 106.12085Q24.987513 106.49585 24.987513 107.05835Q24.987513 107.6521 25.253138 107.99585Q25.503138 108.323975 25.909388 108.323975Q26.300013 108.323975 26.503138 108.011475Q26.706263 107.698975 26.893763 106.886475Q27.065638 106.073975 27.315638 105.573975Q27.565638 105.073975 27.925013 104.8396Q28.284388 104.5896 28.784388 104.5896Q29.643763 104.5896 30.159388 105.2771Q30.675013 105.948975 30.675013 107.0271Q30.675013 107.792725 30.409388 108.386475Q30.128138 108.9646 29.643763 109.292725Q29.159388 109.62085 28.596888 109.62085L28.596888 108.542725Q29.143763 108.511475 29.471888 108.105225Q29.784388 107.698975 29.784388 107.0271Q29.784388 106.417725 29.534388 106.042725Q29.284388 105.667725 28.862513 105.667725ZM27.456263 94.99585Q28.909388 94.99585 29.800013 95.667725Q30.675013 96.323975 30.675013 97.448975Q30.675013 98.6521 29.815638 99.30835L30.550013 99.37085L30.550013 100.355225L21.550013 100.355225L21.550013 99.2771L24.909388 99.2771Q24.096888 98.62085 24.096888 97.4646Q24.096888 96.30835 24.971888 95.6521Q25.831263 94.99585 27.362513 94.99585L27.456263 94.99585ZM27.331263 96.073975Q26.221888 96.073975 25.628138 96.511475Q25.018763 96.93335 25.018763 97.730225Q25.018763 98.80835 26.003138 99.2771L28.753138 99.2771Q29.753138 98.7771 29.753138 97.730225Q29.753138 96.948975 29.143763 96.511475Q28.534388 96.073975 27.331263 96.073975ZM30.675013 90.730225Q30.675013 92.0271 29.831263 92.8396Q28.971888 93.636475 27.550013 93.636475L27.362513 93.636475Q26.409388 93.636475 25.675013 93.2771Q24.925013 92.917725 24.518763 92.2771Q24.096888 91.62085 24.096888 90.87085Q24.096888 89.636475 24.909388 88.948975Q25.721888 88.261475 27.237513 88.261475L27.690638 88.261475L27.690638 92.55835Q28.628138 92.5271 29.206263 92.011475Q29.784388 91.480225 29.784388 90.667725Q29.784388 90.105225 29.550013 89.7146Q29.315638 89.30835 28.925013 88.99585L29.440638 88.3396Q30.675013 89.136475 30.675013 90.730225ZM24.987513 90.87085Q24.987513 91.5271 25.471888 91.980225Q25.940638 92.417725 26.800013 92.511475L26.800013 89.3396L26.721888 89.3396Q25.893763 89.386475 25.440638 89.792725Q24.987513 90.18335 24.987513 90.87085ZM22.675013 85.886475L24.206263 85.886475L24.206263 84.7146L25.050013 84.7146L25.050013 85.886475L28.971888 85.886475Q29.362513 85.886475 29.550013 85.730225Q29.737513 85.573975 29.737513 85.198975Q29.737513 85.011475 29.675013 84.68335L30.550013 84.68335Q30.675013 85.105225 30.675013 85.511475Q30.675013 86.230225 30.237513 86.605225Q29.784388 86.980225 28.971888 86.980225L25.050013 86.980225L25.050013 88.136475L24.206263 88.136475L24.206263 86.980225L22.675013 86.980225L22.675013 85.886475ZM22.675013 81.886475L24.206263 81.886475L24.206263 80.7146L25.050013 80.7146L25.050013 81.886475L28.971888 81.886475Q29.362513 81.886475 29.550013 81.730225Q29.737513 81.573975 29.737513 81.198975Q29.737513 81.011475 29.675013 80.68335L30.550013 80.68335Q30.675013 81.105225 30.675013 81.511475Q30.675013 82.230225 30.237513 82.605225Q29.784388 82.980225 28.971888 82.980225L25.050013 82.980225L25.050013 84.136475L24.206263 84.136475L24.206263 82.980225L22.675013 82.980225L22.675013 81.886475ZM30.675013 76.730225Q30.675013 78.0271 29.831263 78.8396Q28.971888 79.636475 27.550013 79.636475L27.362513 79.636475Q26.409388 79.636475 25.675013 79.2771Q24.925013 78.917725 24.518763 78.2771Q24.096888 77.62085 24.096888 76.87085Q24.096888 75.636475 24.909388 74.948975Q25.721888 74.261475 27.237513 74.261475L27.690638 74.261475L27.690638 78.55835Q28.628138 78.5271 29.206263 78.011475Q29.784388 77.480225 29.784388 76.667725Q29.784388 76.105225 29.550013 75.7146Q29.315638 75.30835 28.925013 74.99585L29.440638 74.3396Q30.675013 75.136475 30.675013 76.730225ZM24.987513 76.87085Q24.987513 77.5271 25.471888 77.980225Q25.940638 78.417725 26.800013 78.511475L26.800013 75.3396L26.721888 75.3396Q25.893763 75.386475 25.440638 75.792725Q24.987513 76.18335 24.987513 76.87085ZM25.175013 70.292725Q25.143763 70.542725 25.143763 70.823975Q25.143763 71.9021 26.050013 72.2771L30.550013 72.2771L30.550013 73.355225L24.206263 73.355225L24.206263 72.30835L24.940638 72.292725Q24.096888 71.761475 24.096888 70.7771Q24.096888 70.4646 24.175013 70.292725L25.175013 70.292725ZM27.143763 66.855225Q28.456263 66.855225 29.659388 67.198975Q30.846888 67.542725 31.862513 68.261475Q32.878136 68.9646 33.30001 69.730225L32.64376 69.9646Q31.956263 69.05835 30.503138 68.511475Q29.034388 67.9646 27.268763 67.948975L27.081263 67.948975Q25.846888 67.948975 24.784388 68.2146Q23.721888 68.4646 22.893763 68.93335Q22.050013 69.386475 21.581263 69.9646L20.925013 69.730225Q21.346888 68.9646 22.346888 68.261475Q23.346888 67.55835 24.565638 67.2146Q25.768763 66.855225 27.143763 66.855225Z" fill-rule="nonzero"/><path fill="#757575" d="M71.6125 332.3094Q71.6125 334.21564 70.95625 335.15314Q70.31563 336.075 68.925 336.075Q67.56563 336.075 66.90938 335.16876Q66.25313 334.2625 66.22188 332.45L66.22188 331.0125Q66.22188 329.1219 66.8625 328.21564Q67.51875 327.29376 68.90938 327.29376Q70.28438 327.29376 70.94063 328.1844Q71.59688 329.0594 71.6125 330.90314L71.6125 332.3094ZM70.51875 330.825Q70.51875 329.45 70.12813 328.825Q69.75313 328.1844 68.90938 328.1844Q68.08125 328.1844 67.69063 328.825Q67.31563 329.45 67.31563 330.7469L67.31563 332.48126Q67.31563 333.85626 67.70625 334.52814Q68.1125 335.1844 68.925 335.1844Q69.72188 335.1844 70.1125 334.5594Q70.50313 333.9344 70.51875 332.60626L70.51875 330.825Z" fill-rule="nonzero"/><path fill="#757575" d="M57.846874 243.27222L52.253124 243.27222L52.253124 242.49097L55.20625 239.20972Q55.8625 238.45972 56.1125 238.00659Q56.3625 237.53784 56.3625 237.03784Q56.3625 236.36597 55.95625 235.94409Q55.565624 235.50659 54.878124 235.50659Q54.08125 235.50659 53.628124 235.97534Q53.175 236.42847 53.175 237.25659L52.096874 237.25659Q52.096874 236.06909 52.846874 235.35034Q53.6125 234.61597 54.878124 234.61597Q56.08125 234.61597 56.76875 235.24097Q57.45625 235.86597 57.45625 236.91284Q57.45625 238.16284 55.846874 239.91284L53.565624 242.38159L57.846874 242.38159L57.846874 243.27222ZM64.6125 239.63159Q64.6125 241.53784 63.95625 242.47534Q63.315624 243.39722 61.925 243.39722Q60.565624 243.39722 59.909374 242.49097Q59.253124 241.58472 59.221874 239.77222L59.221874 238.33472Q59.221874 236.44409 59.8625 235.53784Q60.51875 234.61597 61.909374 234.61597Q63.284374 234.61597 63.940624 235.50659Q64.59688 236.38159 64.6125 238.22534L64.6125 239.63159ZM63.51875 238.14722Q63.51875 236.77222 63.128124 236.14722Q62.753124 235.50659 61.909374 235.50659Q61.08125 235.50659 60.690624 236.14722Q60.315624 236.77222 60.315624 238.06909L60.315624 239.80347Q60.315624 241.17847 60.70625 241.85034Q61.1125 242.50659 61.925 242.50659Q62.721874 242.50659 63.1125 241.88159Q63.503124 241.25659 63.51875 239.92847L63.51875 238.14722ZM71.6125 239.63159Q71.6125 241.53784 70.95625 242.47534Q70.31563 243.39722 68.925 243.39722Q67.56563 243.39722 66.90938 242.49097Q66.25313 241.58472 66.22188 239.77222L66.22188 238.33472Q66.22188 236.44409 66.8625 235.53784Q67.51875 234.61597 68.90938 234.61597Q70.28438 234.61597 70.94063 235.50659Q71.59688 236.38159 71.6125 238.22534L71.6125 239.63159ZM70.51875 238.14722Q70.51875 236.77222 70.12813 236.14722Q69.75313 235.50659 68.90938 235.50659Q68.08125 235.50659 67.69063 236.14722Q67.31563 236.77222 67.31563 238.06909L67.31563 239.80347Q67.31563 241.17847 67.70625 241.85034Q68.1125 242.50659 68.925 242.50659Q69.72188 242.50659 70.1125 241.88159Q70.50313 241.25659 70.51875 239.92847L70.51875 238.14722Z" fill-rule="nonzero"/><path fill="#757575" d="M56.83125 147.73508L58.01875 147.73508L58.01875 148.61008L56.83125 148.61008L56.83125 150.59445L55.753124 150.59445L55.753124 148.61008L51.8625 148.61008L51.8625 147.96945L55.675 142.0632L56.83125 142.0632L56.83125 147.73508ZM53.096874 147.73508L55.753124 147.73508L55.753124 143.54758L55.6125 143.78195L53.096874 147.73508ZM64.6125 146.95383Q64.6125 148.86008 63.95625 149.79758Q63.315624 150.71945 61.925 150.71945Q60.565624 150.71945 59.909374 149.8132Q59.253124 148.90695 59.221874 147.09445L59.221874 145.65695Q59.221874 143.76633 59.8625 142.86008Q60.51875 141.9382 61.909374 141.9382Q63.284374 141.9382 63.940624 142.82883Q64.59688 143.70383 64.6125 145.54758L64.6125 146.95383ZM63.51875 145.46945Q63.51875 144.09445 63.128124 143.46945Q62.753124 142.82883 61.909374 142.82883Q61.08125 142.82883 60.690624 143.46945Q60.315624 144.09445 60.315624 145.39133L60.315624 147.1257Q60.315624 148.5007 60.70625 149.17258Q61.1125 149.82883 61.925 149.82883Q62.721874 149.82883 63.1125 149.20383Q63.503124 148.57883 63.51875 147.2507L63.51875 145.46945ZM71.6125 146.95383Q71.6125 148.86008 70.95625 149.79758Q70.31563 150.71945 68.925 150.71945Q67.56563 150.71945 66.90938 149.8132Q66.25313 148.90695 66.22188 147.09445L66.22188 145.65695Q66.22188 143.76633 66.8625 142.86008Q67.51875 141.9382 68.90938 141.9382Q70.28438 141.9382 70.94063 142.82883Q71.59688 143.70383 71.6125 145.54758L71.6125 146.95383ZM70.51875 145.46945Q70.51875 144.09445 70.12813 143.46945Q69.75313 142.82883 68.90938 142.82883Q68.08125 142.82883 67.69063 143.46945Q67.31563 144.09445 67.31563 145.39133L67.31563 147.1257Q67.31563 148.5007 67.70625 149.17258Q68.1125 149.82883 68.925 149.82883Q69.72188 149.82883 70.1125 149.20383Q70.50313 148.57883 70.51875 147.2507L70.51875 145.46945Z" fill-rule="nonzero"/><path fill="#757575" d="M56.51875 49.385418L56.51875 50.291668L56.315624 50.291668Q55.05 50.322918 54.3 51.057293Q53.55 51.776043 53.425 53.088543Q54.1125 52.322918 55.26875 52.322918Q56.378124 52.322918 57.05 53.104168Q57.721874 53.885418 57.721874 55.135418Q57.721874 56.447918 57.003124 57.244793Q56.284374 58.041668 55.065624 58.041668Q53.846874 58.041668 53.08125 57.104168Q52.33125 56.151043 52.33125 54.666668L52.33125 54.260418Q52.33125 51.901043 53.33125 50.651043Q54.33125 49.401043 56.315624 49.385418L56.51875 49.385418ZM55.096874 53.229168Q54.534374 53.229168 54.065624 53.557293Q53.596874 53.885418 53.409374 54.401043L53.409374 54.791668Q53.409374 55.854168 53.878124 56.494793Q54.3625 57.135418 55.065624 57.135418Q55.8 57.135418 56.221874 56.604168Q56.64375 56.057293 56.64375 55.182293Q56.64375 54.307293 56.221874 53.776043Q55.8 53.229168 55.096874 53.229168ZM64.6125 54.276043Q64.6125 56.182293 63.95625 57.119793Q63.315624 58.041668 61.925 58.041668Q60.565624 58.041668 59.909374 57.135418Q59.253124 56.229168 59.221874 54.416668L59.221874 52.979168Q59.221874 51.088543 59.8625 50.182293Q60.51875 49.260418 61.909374 49.260418Q63.284374 49.260418 63.940624 50.151043Q64.59688 51.026043 64.6125 52.869793L64.6125 54.276043ZM63.51875 52.791668Q63.51875 51.416668 63.128124 50.791668Q62.753124 50.151043 61.909374 50.151043Q61.08125 50.151043 60.690624 50.791668Q60.315624 51.416668 60.315624 52.713543L60.315624 54.447918Q60.315624 55.822918 60.70625 56.494793Q61.1125 57.151043 61.925 57.151043Q62.721874 57.151043 63.1125 56.526043Q63.503124 55.901043 63.51875 54.572918L63.51875 52.791668ZM71.6125 54.276043Q71.6125 56.182293 70.95625 57.119793Q70.31563 58.041668 68.925 58.041668Q67.56563 58.041668 66.90938 57.135418Q66.25313 56.229168 66.22188 54.416668L66.22188 52.979168Q66.22188 51.088543 66.8625 50.182293Q67.51875 49.260418 68.90938 49.260418Q70.28438 49.260418 70.94063 50.151043Q71.59688 51.026043 71.6125 52.869793L71.6125 54.276043ZM70.51875 52.791668Q70.51875 51.416668 70.12813 50.791668Q69.75313 50.151043 68.90938 50.151043Q68.08125 50.151043 67.69063 50.791668Q67.31563 51.416668 67.31563 52.713543L67.31563 54.447918Q67.31563 55.822918 67.70625 56.494793Q68.1125 57.151043 68.925 57.151043Q69.72188 57.151043 70.1125 56.526043Q70.50313 55.901043 70.51875 54.572918L70.51875 52.791668Z" fill-rule="nonzero"/><path fill="#757575" d="M152.17747 341.575L152.17747 343.10626L153.34935 343.10626L153.34935 343.95L152.17747 343.95L152.17747 347.8719Q152.17747 348.2625 152.33372 348.45Q152.48997 348.6375 152.86497 348.6375Q153.05247 348.6375 153.3806 348.575L153.3806 349.45Q152.95872 349.575 152.55247 349.575Q151.83372 349.575 151.45872 349.1375Q151.08372 348.6844 151.08372 347.8719L151.08372 343.95L149.92747 343.95L149.92747 343.10626L151.08372 343.10626L151.08372 341.575L152.17747 341.575ZM160.3181 347.95L161.53685 343.10626L162.61497 343.10626L160.77122 349.45L159.89622 349.45L158.34935 344.6375L156.84935 349.45L155.97435 349.45L154.1306 343.10626L155.20872 343.10626L156.45872 347.85626L157.9431 343.10626L158.80247 343.10626L160.3181 347.95ZM164.8806 349.45L163.80247 349.45L163.80247 343.10626L164.8806 343.10626L164.8806 349.45ZM163.70872 341.4344Q163.70872 341.16876 163.86497 340.98126Q164.03685 340.79376 164.34935 340.79376Q164.66185 340.79376 164.8181 340.98126Q164.98997 341.16876 164.98997 341.4344Q164.98997 341.6844 164.8181 341.8719Q164.66185 342.04376 164.34935 342.04376Q164.03685 342.04376 163.86497 341.8719Q163.70872 341.6844 163.70872 341.4344ZM168.17747 341.575L168.17747 343.10626L169.34935 343.10626L169.34935 343.95L168.17747 343.95L168.17747 347.8719Q168.17747 348.2625 168.33372 348.45Q168.48997 348.6375 168.86497 348.6375Q169.05247 348.6375 169.3806 348.575L169.3806 349.45Q168.95872 349.575 168.55247 349.575Q167.83372 349.575 167.45872 349.1375Q167.08372 348.6844 167.08372 347.8719L167.08372 343.95L165.92747 343.95L165.92747 343.10626L167.08372 343.10626L167.08372 341.575L168.17747 341.575ZM172.17747 341.575L172.17747 343.10626L173.34935 343.10626L173.34935 343.95L172.17747 343.95L172.17747 347.8719Q172.17747 348.2625 172.33372 348.45Q172.48997 348.6375 172.86497 348.6375Q173.05247 348.6375 173.3806 348.575L173.3806 349.45Q172.95872 349.575 172.55247 349.575Q171.83372 349.575 171.45872 349.1375Q171.08372 348.6844 171.08372 347.8719L171.08372 343.95L169.92747 343.95L169.92747 343.10626L171.08372 343.10626L171.08372 341.575L172.17747 341.575ZM177.33372 349.575Q176.03685 349.575 175.22435 348.73126Q174.42747 347.8719 174.42747 346.45L174.42747 346.2625Q174.42747 345.3094 174.78685 344.575Q175.14622 343.825 175.78685 343.41876Q176.4431 342.9969 177.1931 342.9969Q178.42747 342.9969 179.11497 343.8094Q179.80247 344.6219 179.80247 346.1375L179.80247 346.59064L175.5056 346.59064Q175.53685 347.52814 176.05247 348.10626Q176.58372 348.6844 177.39622 348.6844Q177.95872 348.6844 178.34935 348.45Q178.7556 348.21564 179.0681 347.825L179.72435 348.34064Q178.92747 349.575 177.33372 349.575ZM177.1931 343.8875Q176.53685 343.8875 176.08372 344.3719Q175.64622 344.84064 175.55247 345.7L178.72435 345.7L178.72435 345.6219Q178.67747 344.79376 178.27122 344.34064Q177.8806 343.8875 177.1931 343.8875ZM183.77122 344.075Q183.52122 344.04376 183.23997 344.04376Q182.16185 344.04376 181.78685 344.95L181.78685 349.45L180.70872 349.45L180.70872 343.10626L181.7556 343.10626L181.77122 343.84064Q182.30247 342.9969 183.28685 342.9969Q183.59935 342.9969 183.77122 343.075L183.77122 344.075ZM184.72435 348.8875Q184.72435 348.60626 184.8806 348.41876Q185.05247 348.23126 185.3806 348.23126Q185.72435 348.23126 185.89622 348.41876Q186.0681 348.60626 186.0681 348.8875Q186.0681 349.15314 185.89622 349.34064Q185.72435 349.5125 185.3806 349.5125Q185.05247 349.5125 184.8806 349.34064Q184.72435 349.15314 184.72435 348.8875ZM188.8181 343.10626L188.8181 350.1844Q188.8181 352.0125 187.16185 352.0125Q186.80247 352.0125 186.5056 351.90314L186.5056 351.04376Q186.6931 351.09064 186.98997 351.09064Q187.34935 351.09064 187.53685 350.8875Q187.73997 350.7 187.73997 350.2L187.73997 343.10626L188.8181 343.10626ZM187.6306 341.4344Q187.6306 341.16876 187.78685 340.98126Q187.9431 340.79376 188.2556 340.79376Q188.5681 340.79376 188.72435 340.98126Q188.89622 341.16876 188.89622 341.4344Q188.89622 341.6844 188.72435 341.8719Q188.5681 342.04376 188.2556 342.04376Q187.9431 342.04376 187.78685 341.8719Q187.6306 341.6844 187.6306 341.4344ZM194.39622 347.7625Q194.39622 347.325 194.05247 347.09064Q193.72435 346.84064 192.89622 346.66876Q192.08372 346.4969 191.59935 346.2469Q191.11497 345.9969 190.8806 345.66876Q190.66185 345.325 190.66185 344.85626Q190.66185 344.075 191.3181 343.54376Q191.97435 342.9969 193.0056 342.9969Q194.08372 342.9969 194.73997 343.5594Q195.41185 344.10626 195.41185 344.96564L194.33372 344.96564Q194.33372 344.52814 193.9431 344.21564Q193.5681 343.8875 193.0056 343.8875Q192.41185 343.8875 192.0681 344.15314Q191.73997 344.40314 191.73997 344.8094Q191.73997 345.2 192.05247 345.40314Q192.36497 345.60626 193.17747 345.79376Q193.98997 345.96564 194.48997 346.21564Q194.98997 346.46564 195.22435 346.825Q195.47435 347.1844 195.47435 347.6844Q195.47435 348.54376 194.78685 349.0594Q194.11497 349.575 193.03685 349.575Q192.27122 349.575 191.67747 349.3094Q191.09935 349.02814 190.77122 348.54376Q190.4431 348.0594 190.4431 347.4969L191.52122 347.4969Q191.55247 348.04376 191.95872 348.3719Q192.36497 348.6844 193.03685 348.6844Q193.64622 348.6844 194.02122 348.4344Q194.39622 348.1844 194.39622 347.7625ZM196.41185 346.21564Q196.41185 345.29376 196.77122 344.54376Q197.14622 343.79376 197.80247 343.40314Q198.45872 342.9969 199.28685 342.9969Q200.58372 342.9969 201.3806 343.8875Q202.1931 344.77814 202.1931 346.27814L202.1931 346.35626Q202.1931 347.27814 201.83372 348.0125Q201.47435 348.7469 200.8181 349.16876Q200.16185 349.575 199.30247 349.575Q198.02122 349.575 197.20872 348.6844Q196.41185 347.77814 196.41185 346.29376L196.41185 346.21564ZM197.5056 346.35626Q197.5056 347.40314 197.98997 348.04376Q198.48997 348.6844 199.30247 348.6844Q200.1306 348.6844 200.61497 348.04376Q201.09935 347.3875 201.09935 346.21564Q201.09935 345.1844 200.59935 344.54376Q200.11497 343.8875 199.28685 343.8875Q198.48997 343.8875 197.98997 344.52814Q197.5056 345.15314 197.5056 346.35626ZM204.72435 343.10626L204.7556 343.90314Q205.48997 342.9969 206.66185 342.9969Q208.67747 342.9969 208.6931 345.2625L208.6931 349.45L207.59935 349.45L207.59935 345.2469Q207.59935 344.575 207.28685 344.2469Q206.98997 343.91876 206.33372 343.91876Q205.80247 343.91876 205.39622 344.2Q205.0056 344.48126 204.78685 344.9344L204.78685 349.45L203.70872 349.45L203.70872 343.10626L204.72435 343.10626Z" fill-rule="nonzero"/><path fill="#757575" d="M280.0625 346.23126Q280.0625 344.7469 280.75 343.8719Q281.4375 342.9969 282.5625 342.9969Q283.71875 342.9969 284.375 343.8094L284.42188 343.10626L285.42188 343.10626L285.42188 349.29376Q285.42188 350.52814 284.6875 351.23126Q283.95312 351.95 282.73438 351.95Q282.04688 351.95 281.39062 351.65314Q280.73438 351.35626 280.39062 350.85626L280.95312 350.2Q281.64062 351.0594 282.65625 351.0594Q283.4375 351.0594 283.875 350.60626Q284.32812 350.16876 284.32812 349.35626L284.32812 348.8094Q283.67188 349.575 282.54688 349.575Q281.4375 349.575 280.75 348.6844Q280.0625 347.77814 280.0625 346.23126ZM281.15625 346.35626Q281.15625 347.41876 281.59375 348.04376Q282.03125 348.65314 282.82812 348.65314Q283.84375 348.65314 284.32812 347.71564L284.32812 344.825Q283.82812 343.91876 282.82812 343.91876Q282.04688 343.91876 281.59375 344.52814Q281.15625 345.1375 281.15625 346.35626ZM288.5 349.45L287.42188 349.45L287.42188 343.10626L288.5 343.10626L288.5 349.45ZM287.32812 341.4344Q287.32812 341.16876 287.48438 340.98126Q287.65625 340.79376 287.96875 340.79376Q288.28125 340.79376 288.4375 340.98126Q288.60938 341.16876 288.60938 341.4344Q288.60938 341.6844 288.4375 341.8719Q288.28125 342.04376 287.96875 342.04376Q287.65625 342.04376 287.48438 341.8719Q287.32812 341.6844 287.32812 341.4344ZM291.79688 341.575L291.79688 343.10626L292.96875 343.10626L292.96875 343.95L291.79688 343.95L291.79688 347.8719Q291.79688 348.2625 291.95312 348.45Q292.10938 348.6375 292.48438 348.6375Q292.67188 348.6375 293.0 348.575L293.0 349.45Q292.57812 349.575 292.17188 349.575Q291.45312 349.575 291.07812 349.1375Q290.70312 348.6844 290.70312 347.8719L290.70312 343.95L289.54688 343.95L289.54688 343.10626L290.70312 343.10626L290.70312 341.575L291.79688 341.575ZM295.40625 343.8719Q296.125 342.9969 297.28125 342.9969Q299.29688 342.9969 299.3125 345.2625L299.3125 349.45L298.21875 349.45L298.21875 345.2469Q298.21875 344.575 297.90625 344.2469Q297.60938 343.91876 296.95312 343.91876Q296.42188 343.91876 296.01562 344.2Q295.625 344.48126 295.40625 344.9344L295.40625 349.45L294.32812 349.45L294.32812 340.45L295.40625 340.45L295.40625 343.8719ZM305.23438 348.825Q304.60938 349.575 303.375 349.575Q302.35938 349.575 301.82812 348.98126Q301.29688 348.3875 301.29688 347.23126L301.29688 343.10626L302.375 343.10626L302.375 347.2Q302.375 348.65314 303.54688 348.65314Q304.79688 348.65314 305.20312 347.71564L305.20312 343.10626L306.29688 343.10626L306.29688 349.45L305.26562 349.45L305.23438 348.825ZM313.6875 346.35626Q313.6875 347.8094 313.01562 348.7Q312.35938 349.575 311.23438 349.575Q310.03125 349.575 309.375 348.71564L309.3125 349.45L308.32812 349.45L308.32812 340.45L309.40625 340.45L309.40625 343.8094Q310.0625 342.9969 311.21875 342.9969Q312.375 342.9969 313.03125 343.8719Q313.6875 344.73126 313.6875 346.2625L313.6875 346.35626ZM312.60938 346.23126Q312.60938 345.1219 312.17188 344.52814Q311.75 343.91876 310.95312 343.91876Q309.875 343.91876 309.40625 344.90314L309.40625 347.65314Q309.90625 348.65314 310.95312 348.65314Q311.73438 348.65314 312.17188 348.04376Q312.60938 347.4344 312.60938 346.23126ZM319.89062 350.34064L314.53125 350.34064L314.53125 349.45L319.89062 349.45L319.89062 350.34064ZM322.95312 349.575Q321.65625 349.575 320.84375 348.73126Q320.04688 347.8719 320.04688 346.45L320.04688 346.2625Q320.04688 345.3094 320.40625 344.575Q320.76562 343.825 321.40625 343.41876Q322.0625 342.9969 322.8125 342.9969Q324.04688 342.9969 324.73438 343.8094Q325.42188 344.6219 325.42188 346.1375L325.42188 346.59064L321.125 346.59064Q321.15625 347.52814 321.67188 348.10626Q322.20312 348.6844 323.01562 348.6844Q323.57812 348.6844 323.96875 348.45Q324.375 348.21564 324.6875 347.825L325.34375 348.34064Q324.54688 349.575 322.95312 349.575ZM322.8125 343.8875Q322.15625 343.8875 321.70312 344.3719Q321.26562 344.84064 321.17188 345.7L324.34375 345.7L324.34375 345.6219Q324.29688 344.79376 323.89062 344.34064Q323.5 343.8875 322.8125 343.8875ZM328.40625 347.98126L329.98438 343.10626L331.09375 343.10626L328.8125 349.45L327.98438 349.45L325.6875 343.10626L326.79688 343.10626L328.40625 347.98126ZM334.95312 349.575Q333.65625 349.575 332.84375 348.73126Q332.04688 347.8719 332.04688 346.45L332.04688 346.2625Q332.04688 345.3094 332.40625 344.575Q332.76562 343.825 333.40625 343.41876Q334.0625 342.9969 334.8125 342.9969Q336.04688 342.9969 336.73438 343.8094Q337.42188 344.6219 337.42188 346.1375L337.42188 346.59064L333.125 346.59064Q333.15625 347.52814 333.67188 348.10626Q334.20312 348.6844 335.01562 348.6844Q335.57812 348.6844 335.96875 348.45Q336.375 348.21564 336.6875 347.825L337.34375 348.34064Q336.54688 349.575 334.95312 349.575ZM334.8125 343.8875Q334.15625 343.8875 333.70312 344.3719Q333.26562 344.84064 333.17188 345.7L336.34375 345.7L336.34375 345.6219Q336.29688 344.79376 335.89062 344.34064Q335.5 343.8875 334.8125 343.8875ZM339.34375 343.10626L339.375 343.90314Q340.10938 342.9969 341.28125 342.9969Q343.29688 342.9969 343.3125 345.2625L343.3125 349.45L342.21875 349.45L342.21875 345.2469Q342.21875 344.575 341.90625 344.2469Q341.60938 343.91876 340.95312 343.91876Q340.42188 343.91876 340.01562 344.2Q339.625 344.48126 339.40625 344.9344L339.40625 349.45L338.32812 349.45L338.32812 343.10626L339.34375 343.10626ZM346.79688 341.575L346.79688 343.10626L347.96875 343.10626L347.96875 343.95L346.79688 343.95L346.79688 347.8719Q346.79688 348.2625 346.95312 348.45Q347.10938 348.6375 347.48438 348.6375Q347.67188 348.6375 348.0 348.575L348.0 349.45Q347.57812 349.575 347.17188 349.575Q346.45312 349.575 346.07812 349.1375Q345.70312 348.6844 345.70312 347.8719L345.70312 343.95L344.54688 343.95L344.54688 343.10626L345.70312 343.10626L345.70312 341.575L346.79688 341.575ZM353.01562 347.7625Q353.01562 347.325 352.67188 347.09064Q352.34375 346.84064 351.51562 346.66876Q350.70312 346.4969 350.21875 346.2469Q349.73438 345.9969 349.5 345.66876Q349.28125 345.325 349.28125 344.85626Q349.28125 344.075 349.9375 343.54376Q350.59375 342.9969 351.625 342.9969Q352.70312 342.9969 353.35938 343.5594Q354.03125 344.10626 354.03125 344.96564L352.95312 344.96564Q352.95312 344.52814 352.5625 344.21564Q352.1875 343.8875 351.625 343.8875Q351.03125 343.8875 350.6875 344.15314Q350.35938 344.40314 350.35938 344.8094Q350.35938 345.2 350.67188 345.40314Q350.98438 345.60626 351.79688 345.79376Q352.60938 345.96564 353.10938 346.21564Q353.60938 346.46564 353.84375 346.825Q354.09375 347.1844 354.09375 347.6844Q354.09375 348.54376 353.40625 349.0594Q352.73438 349.575 351.65625 349.575Q350.89062 349.575 350.29688 349.3094Q349.71875 349.02814 349.39062 348.54376Q349.0625 348.0594 349.0625 347.4969L350.14062 347.4969Q350.17188 348.04376 350.57812 348.3719Q350.98438 348.6844 351.65625 348.6844Q352.26562 348.6844 352.64062 348.4344Q353.01562 348.1844 353.01562 347.7625ZM355.34375 348.8875Q355.34375 348.60626 355.5 348.41876Q355.67188 348.23126 356.0 348.23126Q356.34375 348.23126 356.51562 348.41876Q356.6875 348.60626 356.6875 348.8875Q356.6875 349.15314 356.51562 349.34064Q356.34375 349.5125 356.0 349.5125Q355.67188 349.5125 355.5 349.34064Q355.34375 349.15314 355.34375 348.8875ZM359.4375 343.10626L359.4375 350.1844Q359.4375 352.0125 357.78125 352.0125Q357.42188 352.0125 357.125 351.90314L357.125 351.04376Q357.3125 351.09064 357.60938 351.09064Q357.96875 351.09064 358.15625 350.8875Q358.35938 350.7 358.35938 350.2L358.35938 343.10626L359.4375 343.10626ZM358.25 341.4344Q358.25 341.16876 358.40625 340.98126Q358.5625 340.79376 358.875 340.79376Q359.1875 340.79376 359.34375 340.98126Q359.51562 341.16876 359.51562 341.4344Q359.51562 341.6844 359.34375 341.8719Q359.1875 342.04376 358.875 342.04376Q358.5625 342.04376 358.40625 341.8719Q358.25 341.6844 358.25 341.4344ZM365.01562 347.7625Q365.01562 347.325 364.67188 347.09064Q364.34375 346.84064 363.51562 346.66876Q362.70312 346.4969 362.21875 346.2469Q361.73438 345.9969 361.5 345.66876Q361.28125 345.325 361.28125 344.85626Q361.28125 344.075 361.9375 343.54376Q362.59375 342.9969 363.625 342.9969Q364.70312 342.9969 365.35938 343.5594Q366.03125 344.10626 366.03125 344.96564L364.95312 344.96564Q364.95312 344.52814 364.5625 344.21564Q364.1875 343.8875 363.625 343.8875Q363.03125 343.8875 362.6875 344.15314Q362.35938 344.40314 362.35938 344.8094Q362.35938 345.2 362.67188 345.40314Q362.98438 345.60626 363.79688 345.79376Q364.60938 345.96564 365.10938 346.21564Q365.60938 346.46564 365.84375 346.825Q366.09375 347.1844 366.09375 347.6844Q366.09375 348.54376 365.40625 349.0594Q364.73438 349.575 363.65625 349.575Q362.89062 349.575 362.29688 349.3094Q361.71875 349.02814 361.39062 348.54376Q361.0625 348.0594 361.0625 347.4969L362.14062 347.4969Q362.17188 348.04376 362.57812 348.3719Q362.98438 348.6844 363.65625 348.6844Q364.26562 348.6844 364.64062 348.4344Q365.01562 348.1844 365.01562 347.7625ZM367.03125 346.21564Q367.03125 345.29376 367.39062 344.54376Q367.76562 343.79376 368.42188 343.40314Q369.07812 342.9969 369.90625 342.9969Q371.20312 342.9969 372.0 343.8875Q372.8125 344.77814 372.8125 346.27814L372.8125 346.35626Q372.8125 347.27814 372.45312 348.0125Q372.09375 348.7469 371.4375 349.16876Q370.78125 349.575 369.92188 349.575Q368.64062 349.575 367.82812 348.6844Q367.03125 347.77814 367.03125 346.29376L367.03125 346.21564ZM368.125 346.35626Q368.125 347.40314 368.60938 348.04376Q369.10938 348.6844 369.92188 348.6844Q370.75 348.6844 371.23438 348.04376Q371.71875 347.3875 371.71875 346.21564Q371.71875 345.1844 371.21875 344.54376Q370.73438 343.8875 369.90625 343.8875Q369.10938 343.8875 368.60938 344.52814Q368.125 345.15314 368.125 346.35626ZM375.34375 343.10626L375.375 343.90314Q376.10938 342.9969 377.28125 342.9969Q379.29688 342.9969 379.3125 345.2625L379.3125 349.45L378.21875 349.45L378.21875 345.2469Q378.21875 344.575 377.90625 344.2469Q377.60938 343.91876 376.95312 343.91876Q376.42188 343.91876 376.01562 344.2Q375.625 344.48126 375.40625 344.9344L375.40625 349.45L374.32812 349.45L374.32812 343.10626L375.34375 343.10626Z" fill-rule="nonzero"/><path fill="#757575" d="M432.8538 349.45Q432.76004 349.2625 432.69754 348.77814Q431.94754 349.575 430.90067 349.575Q429.96317 349.575 429.3538 349.04376Q428.76004 348.5125 428.76004 347.6844Q428.76004 346.7 429.51004 346.15314Q430.26004 345.60626 431.63504 345.60626L432.68192 345.60626L432.68192 345.10626Q432.68192 344.54376 432.33817 344.21564Q432.01004 343.8719 431.33817 343.8719Q430.76004 343.8719 430.36942 344.16876Q429.9788 344.45 429.9788 344.8719L428.88504 344.8719Q428.88504 344.3875 429.21317 343.95Q429.55692 343.5125 430.13504 343.2625Q430.71317 342.9969 431.40067 342.9969Q432.51004 342.9969 433.11942 343.54376Q433.74442 344.09064 433.77567 345.04376L433.77567 347.96564Q433.77567 348.84064 433.99442 349.35626L433.99442 349.45L432.8538 349.45ZM431.05692 348.6219Q431.57254 348.6219 432.02567 348.35626Q432.4788 348.09064 432.68192 347.66876L432.68192 346.3719L431.83817 346.3719Q429.83817 346.3719 429.83817 347.54376Q429.83817 348.04376 430.18192 348.34064Q430.52567 348.6219 431.05692 348.6219ZM441.2913 346.35626Q441.2913 347.79376 440.63504 348.6844Q439.9788 349.575 438.83817 349.575Q437.68192 349.575 437.02567 348.84064L437.02567 351.8875L435.94754 351.8875L435.94754 343.10626L436.93192 343.10626L436.9788 343.8094Q437.65067 342.9969 438.82254 342.9969Q439.96317 342.9969 440.61942 343.85626Q441.2913 344.71564 441.2913 346.2469L441.2913 346.35626ZM440.21317 346.23126Q440.21317 345.15314 439.74442 344.54376Q439.2913 343.91876 438.49442 343.91876Q437.51004 343.91876 437.02567 344.77814L437.02567 347.8094Q437.51004 348.6844 438.51004 348.6844Q439.2913 348.6844 439.74442 348.075Q440.21317 347.45 440.21317 346.23126ZM446.8538 349.45Q446.76004 349.2625 446.69754 348.77814Q445.94754 349.575 444.90067 349.575Q443.96317 349.575 443.3538 349.04376Q442.76004 348.5125 442.76004 347.6844Q442.76004 346.7 443.51004 346.15314Q444.26004 345.60626 445.63504 345.60626L446.68192 345.60626L446.68192 345.10626Q446.68192 344.54376 446.33817 344.21564Q446.01004 343.8719 445.33817 343.8719Q444.76004 343.8719 444.36942 344.16876Q443.9788 344.45 443.9788 344.8719L442.88504 344.8719Q442.88504 344.3875 443.21317 343.95Q443.55692 343.5125 444.13504 343.2625Q444.71317 342.9969 445.40067 342.9969Q446.51004 342.9969 447.11942 343.54376Q447.74442 344.09064 447.77567 345.04376L447.77567 347.96564Q447.77567 348.84064 447.99442 349.35626L447.99442 349.45L446.8538 349.45ZM445.05692 348.6219Q445.57254 348.6219 446.02567 348.35626Q446.4788 348.09064 446.68192 347.66876L446.68192 346.3719L445.83817 346.3719Q443.83817 346.3719 443.83817 347.54376Q443.83817 348.04376 444.18192 348.34064Q444.52567 348.6219 445.05692 348.6219ZM452.4788 348.6844Q453.05692 348.6844 453.49442 348.34064Q453.93192 347.98126 453.9788 347.45L455.01004 347.45Q454.9788 347.9969 454.61942 348.4969Q454.27567 348.98126 453.69754 349.27814Q453.13504 349.575 452.4788 349.575Q451.18192 349.575 450.4163 348.71564Q449.6663 347.84064 449.6663 346.34064L449.6663 346.15314Q449.6663 345.23126 449.99442 344.5125Q450.33817 343.79376 450.96317 343.40314Q451.6038 342.9969 452.4788 342.9969Q453.5413 342.9969 454.24442 343.6375Q454.96317 344.2625 455.01004 345.29376L453.9788 345.29376Q453.93192 344.66876 453.51004 344.27814Q453.08817 343.8875 452.4788 343.8875Q451.65067 343.8875 451.19754 344.48126Q450.74442 345.075 450.74442 346.2L450.74442 346.40314Q450.74442 347.4969 451.19754 348.09064Q451.65067 348.6844 452.4788 348.6844ZM457.02567 343.8719Q457.74442 342.9969 458.90067 342.9969Q460.9163 342.9969 460.93192 345.2625L460.93192 349.45L459.83817 349.45L459.83817 345.2469Q459.83817 344.575 459.52567 344.2469Q459.2288 343.91876 458.57254 343.91876Q458.0413 343.91876 457.63504 344.2Q457.24442 344.48126 457.02567 344.9344L457.02567 349.45L455.94754 349.45L455.94754 340.45L457.02567 340.45L457.02567 343.8719ZM465.57254 349.575Q464.27567 349.575 463.46317 348.73126Q462.6663 347.8719 462.6663 346.45L462.6663 346.2625Q462.6663 345.3094 463.02567 344.575Q463.38504 343.825 464.02567 343.41876Q464.68192 342.9969 465.43192 342.9969Q466.6663 342.9969 467.3538 343.8094Q468.0413 344.6219 468.0413 346.1375L468.0413 346.59064L463.74442 346.59064Q463.77567 347.52814 464.2913 348.10626Q464.82254 348.6844 465.63504 348.6844Q466.19754 348.6844 466.58817 348.45Q466.99442 348.21564 467.30692 347.825L467.96317 348.34064Q467.1663 349.575 465.57254 349.575ZM465.43192 343.8875Q464.77567 343.8875 464.32254 344.3719Q463.88504 344.84064 463.7913 345.7L466.96317 345.7L466.96317 345.6219Q466.9163 344.79376 466.51004 344.34064Q466.11942 343.8875 465.43192 343.8875ZM473.51004 350.34064L468.15067 350.34064L468.15067 349.45L473.51004 349.45L473.51004 350.34064ZM479.30692 346.35626Q479.30692 347.8094 478.63504 348.7Q477.9788 349.575 476.8538 349.575Q475.65067 349.575 474.99442 348.71564L474.93192 349.45L473.94754 349.45L473.94754 340.45L475.02567 340.45L475.02567 343.8094Q475.68192 342.9969 476.83817 342.9969Q477.99442 342.9969 478.65067 343.8719Q479.30692 344.73126 479.30692 346.2625L479.30692 346.35626ZM478.2288 346.23126Q478.2288 345.1219 477.7913 344.52814Q477.36942 343.91876 476.57254 343.91876Q475.49442 343.91876 475.02567 344.90314L475.02567 347.65314Q475.52567 348.65314 476.57254 348.65314Q477.3538 348.65314 477.7913 348.04376Q478.2288 347.4344 478.2288 346.23126ZM484.8538 348.825Q484.2288 349.575 482.99442 349.575Q481.9788 349.575 481.44754 348.98126Q480.9163 348.3875 480.9163 347.23126L480.9163 343.10626L481.99442 343.10626L481.99442 347.2Q481.99442 348.65314 483.1663 348.65314Q484.4163 348.65314 484.82254 347.71564L484.82254 343.10626L485.9163 343.10626L485.9163 349.45L484.88504 349.45L484.8538 348.825ZM489.11942 349.45L488.0413 349.45L488.0413 343.10626L489.11942 343.10626L489.11942 349.45ZM487.94754 341.4344Q487.94754 341.16876 488.1038 340.98126Q488.27567 340.79376 488.58817 340.79376Q488.90067 340.79376 489.05692 340.98126Q489.2288 341.16876 489.2288 341.4344Q489.2288 341.6844 489.05692 341.8719Q488.90067 342.04376 488.58817 342.04376Q488.27567 342.04376 488.1038 341.8719Q487.94754 341.6844 487.94754 341.4344ZM492.11942 349.45L491.0413 349.45L491.0413 340.45L492.11942 340.45L492.11942 349.45ZM493.68192 346.23126Q493.68192 344.7625 494.36942 343.8875Q495.05692 342.9969 496.18192 342.9969Q497.2913 342.9969 497.94754 343.7469L497.94754 340.45L499.02567 340.45L499.02567 349.45L498.02567 349.45L497.9788 348.7625Q497.32254 349.575 496.1663 349.575Q495.07254 349.575 494.36942 348.66876Q493.68192 347.7625 493.68192 346.3094L493.68192 346.23126ZM494.76004 346.35626Q494.76004 347.4344 495.19754 348.04376Q495.65067 348.65314 496.43192 348.65314Q497.46317 348.65314 497.94754 347.71564L497.94754 344.8094Q497.46317 343.91876 496.44754 343.91876Q495.65067 343.91876 495.19754 344.52814Q494.76004 345.1375 494.76004 346.35626ZM504.63504 347.7625Q504.63504 347.325 504.2913 347.09064Q503.96317 346.84064 503.13504 346.66876Q502.32254 346.4969 501.83817 346.2469Q501.3538 345.9969 501.11942 345.66876Q500.90067 345.325 500.90067 344.85626Q500.90067 344.075 501.55692 343.54376Q502.21317 342.9969 503.24442 342.9969Q504.32254 342.9969 504.9788 343.5594Q505.65067 344.10626 505.65067 344.96564L504.57254 344.96564Q504.57254 344.52814 504.18192 344.21564Q503.80692 343.8875 503.24442 343.8875Q502.65067 343.8875 502.30692 344.15314Q501.9788 344.40314 501.9788 344.8094Q501.9788 345.2 502.2913 345.40314Q502.6038 345.60626 503.4163 345.79376Q504.2288 345.96564 504.7288 346.21564Q505.2288 346.46564 505.46317 346.825Q505.71317 347.1844 505.71317 347.6844Q505.71317 348.54376 505.02567 349.0594Q504.3538 349.575 503.27567 349.575Q502.51004 349.575 501.9163 349.3094Q501.33817 349.02814 501.01004 348.54376Q500.68192 348.0594 500.68192 347.4969L501.76004 347.4969Q501.7913 348.04376 502.19754 348.3719Q502.6038 348.6844 503.27567 348.6844Q503.88504 348.6844 504.26004 348.4344Q504.63504 348.1844 504.63504 347.7625ZM506.96317 348.8875Q506.96317 348.60626 507.11942 348.41876Q507.2913 348.23126 507.61942 348.23126Q507.96317 348.23126 508.13504 348.41876Q508.30692 348.60626 508.30692 348.8875Q508.30692 349.15314 508.13504 349.34064Q507.96317 349.5125 507.61942 349.5125Q507.2913 349.5125 507.11942 349.34064Q506.96317 349.15314 506.96317 348.8875ZM511.05692 343.10626L511.05692 350.1844Q511.05692 352.0125 509.40067 352.0125Q509.0413 352.0125 508.74442 351.90314L508.74442 351.04376Q508.93192 351.09064 509.2288 351.09064Q509.58817 351.09064 509.77567 350.8875Q509.9788 350.7 509.9788 350.2L509.9788 343.10626L511.05692 343.10626ZM509.86942 341.4344Q509.86942 341.16876 510.02567 340.98126Q510.18192 340.79376 510.49442 340.79376Q510.80692 340.79376 510.96317 340.98126Q511.13504 341.16876 511.13504 341.4344Q511.13504 341.6844 510.96317 341.8719Q510.80692 342.04376 510.49442 342.04376Q510.18192 342.04376 510.02567 341.8719Q509.86942 341.6844 509.86942 341.4344ZM516.635 347.7625Q516.635 347.325 516.29126 347.09064Q515.96313 346.84064 515.135 346.66876Q514.3225 346.4969 513.83813 346.2469Q513.35376 345.9969 513.1194 345.66876Q512.90063 345.325 512.90063 344.85626Q512.90063 344.075 513.5569 343.54376Q514.21313 342.9969 515.2444 342.9969Q516.3225 342.9969 516.97876 343.5594Q517.65063 344.10626 517.65063 344.96564L516.5725 344.96564Q516.5725 344.52814 516.1819 344.21564Q515.8069 343.8875 515.2444 343.8875Q514.65063 343.8875 514.3069 344.15314Q513.97876 344.40314 513.97876 344.8094Q513.97876 345.2 514.29126 345.40314Q514.60376 345.60626 515.41626 345.79376Q516.22876 345.96564 516.72876 346.21564Q517.22876 346.46564 517.46313 346.825Q517.71313 347.1844 517.71313 347.6844Q517.71313 348.54376 517.02563 349.0594Q516.35376 349.575 515.27563 349.575Q514.51 349.575 513.91626 349.3094Q513.33813 349.02814 513.01 348.54376Q512.6819 348.0594 512.6819 347.4969L513.76 347.4969Q513.79126 348.04376 514.1975 348.3719Q514.60376 348.6844 515.27563 348.6844Q515.885 348.6844 516.26 348.4344Q516.635 348.1844 516.635 347.7625ZM518.65063 346.21564Q518.65063 345.29376 519.01 344.54376Q519.385 343.79376 520.04126 343.40314Q520.6975 342.9969 521.52563 342.9969Q522.8225 342.9969 523.6194 343.8875Q524.4319 344.77814 524.4319 346.27814L524.4319 346.35626Q524.4319 347.27814 524.0725 348.0125Q523.71313 348.7469 523.0569 349.16876Q522.40063 349.575 521.54126 349.575Q520.26 349.575 519.4475 348.6844Q518.65063 347.77814 518.65063 346.29376L518.65063 346.21564ZM519.7444 346.35626Q519.7444 347.40314 520.22876 348.04376Q520.72876 348.6844 521.54126 348.6844Q522.3694 348.6844 522.85376 348.04376Q523.33813 347.3875 523.33813 346.21564Q523.33813 345.1844 522.83813 344.54376Q522.35376 343.8875 521.52563 343.8875Q520.72876 343.8875 520.22876 344.52814Q519.7444 345.15314 519.7444 346.35626ZM526.96313 343.10626L526.9944 343.90314Q527.72876 342.9969 528.90063 342.9969Q530.91626 342.9969 530.9319 345.2625L530.9319 349.45L529.83813 349.45L529.83813 345.2469Q529.83813 344.575 529.52563 344.2469Q529.22876 343.91876 528.5725 343.91876Q528.04126 343.91876 527.635 344.2Q527.2444 344.48126 527.02563 344.9344L527.02563 349.45L525.9475 349.45L525.9475 343.10626L526.96313 343.10626Z" fill-rule="nonzero"/><path fill="#4285f4" d="M226.0 21.05C226.0 20.497715 226.44771 20.05 227.0 20.05L237.0 20.05C237.55229 20.05 238.0 20.497715 238.0 21.05L238.0 31.05C238.0 31.602285 237.55229 32.05 237.0 32.05L227.0 32.05C226.44771 32.05 226.0 31.602285 226.0 31.05Z" fill-rule="nonzero"/><path fill="#757575" d="M251.70312 28.315624L248.125 28.315624L247.32812 30.55L246.17188 30.55L249.42188 22.01875L250.40625 22.01875L253.67188 30.55L252.51562 30.55L251.70312 28.315624ZM248.46875 27.39375L251.375 27.39375L249.92188 23.409374L248.46875 27.39375ZM260.17188 27.45625Q260.17188 28.89375 259.51562 29.784374Q258.85938 30.675 257.71875 30.675Q256.5625 30.675 255.90625 29.940624L255.90625 32.9875L254.82812 32.9875L254.82812 24.20625L255.8125 24.20625L255.85938 24.909374Q256.53125 24.096874 257.70312 24.096874Q258.84375 24.096874 259.5 24.95625Q260.17188 25.815624 260.17188 27.346874L260.17188 27.45625ZM259.09375 27.33125Q259.09375 26.253124 258.625 25.64375Q258.17188 25.01875 257.375 25.01875Q256.39062 25.01875 255.90625 25.878124L255.90625 28.909374Q256.39062 29.784374 257.39062 29.784374Q258.17188 29.784374 258.625 29.175Q259.09375 28.55 259.09375 27.33125ZM267.17188 27.45625Q267.17188 28.89375 266.51562 29.784374Q265.85938 30.675 264.71875 30.675Q263.5625 30.675 262.90625 29.940624L262.90625 32.9875L261.82812 32.9875L261.82812 24.20625L262.8125 24.20625L262.85938 24.909374Q263.53125 24.096874 264.70312 24.096874Q265.84375 24.096874 266.5 24.95625Q267.17188 25.815624 267.17188 27.346874L267.17188 27.45625ZM266.09375 27.33125Q266.09375 26.253124 265.625 25.64375Q265.17188 25.01875 264.375 25.01875Q263.39062 25.01875 262.90625 25.878124L262.90625 28.909374Q263.39062 29.784374 264.39062 29.784374Q265.17188 29.784374 265.625 29.175Q266.09375 28.55 266.09375 27.33125ZM270.0 30.55L268.92188 30.55L268.92188 21.55L270.0 21.55L270.0 30.55ZM274.45312 30.675Q273.15625 30.675 272.34375 29.83125Q271.54688 28.971874 271.54688 27.55L271.54688 27.3625Q271.54688 26.409374 271.90625 25.675Q272.26562 24.925 272.90625 24.51875Q273.5625 24.096874 274.3125 24.096874Q275.54688 24.096874 276.23438 24.909374Q276.92188 25.721874 276.92188 27.2375L276.92188 27.690624L272.625 27.690624Q272.65625 28.628124 273.17188 29.20625Q273.70312 29.784374 274.51562 29.784374Q275.07812 29.784374 275.46875 29.55Q275.875 29.315624 276.1875 28.925L276.84375 29.440624Q276.04688 30.675 274.45312 30.675ZM274.3125 24.9875Q273.65625 24.9875 273.20312 25.471874Q272.76562 25.940624 272.67188 26.8L275.84375 26.8L275.84375 26.721874Q275.79688 25.89375 275.39062 25.440624Q275.0 24.9875 274.3125 24.9875Z" fill-rule="nonzero"/><path fill="#db4437" d="M293.0 21.05C293.0 20.497715 293.44772 20.05 294.0 20.05L304.0 20.05C304.55228 20.05 305.0 20.497715 305.0 21.05L305.0 31.05C305.0 31.602285 304.55228 32.05 304.0 32.05L294.0 32.05C293.44772 32.05 293.0 31.602285 293.0 31.05Z" fill-rule="nonzero"/><path fill="#757575" d="M314.82812 29.628124L319.71875 29.628124L319.71875 30.55L313.5 30.55L313.5 29.70625L318.1875 22.940624L313.57812 22.940624L313.57812 22.01875L319.53125 22.01875L319.53125 22.846874L314.82812 29.628124ZM322.0 30.55L320.92188 30.55L320.92188 24.20625L322.0 24.20625L322.0 30.55ZM320.82812 22.534374Q320.82812 22.26875 320.98438 22.08125Q321.15625 21.89375 321.46875 21.89375Q321.78125 21.89375 321.9375 22.08125Q322.10938 22.26875 322.10938 22.534374Q322.10938 22.784374 321.9375 22.971874Q321.78125 23.14375 321.46875 23.14375Q321.15625 23.14375 320.98438 22.971874Q320.82812 22.784374 320.82812 22.534374ZM329.17188 27.45625Q329.17188 28.89375 328.51562 29.784374Q327.85938 30.675 326.71875 30.675Q325.5625 30.675 324.90625 29.940624L324.90625 32.9875L323.82812 32.9875L323.82812 24.20625L324.8125 24.20625L324.85938 24.909374Q325.53125 24.096874 326.70312 24.096874Q327.84375 24.096874 328.5 24.95625Q329.17188 25.815624 329.17188 27.346874L329.17188 27.45625ZM328.09375 27.33125Q328.09375 26.253124 327.625 25.64375Q327.17188 25.01875 326.375 25.01875Q325.39062 25.01875 324.90625 25.878124L324.90625 28.909374Q325.39062 29.784374 326.39062 29.784374Q327.17188 29.784374 327.625 29.175Q328.09375 28.55 328.09375 27.33125ZM336.17188 27.45625Q336.17188 28.89375 335.51562 29.784374Q334.85938 30.675 333.71875 30.675Q332.5625 30.675 331.90625 29.940624L331.90625 32.9875L330.82812 32.9875L330.82812 24.20625L331.8125 24.20625L331.85938 24.909374Q332.53125 24.096874 333.70312 24.096874Q334.84375 24.096874 335.5 24.95625Q336.17188 25.815624 336.17188 27.346874L336.17188 27.45625ZM335.09375 27.33125Q335.09375 26.253124 334.625 25.64375Q334.17188 25.01875 333.375 25.01875Q332.39062 25.01875 331.90625 25.878124L331.90625 28.909374Q332.39062 29.784374 333.39062 29.784374Q334.17188 29.784374 334.625 29.175Q335.09375 28.55 335.09375 27.33125ZM339.89062 28.95625L341.375 24.20625L342.53125 24.20625L339.98438 31.534374Q339.39062 33.1125 338.10938 33.1125L337.89062 33.096874L337.5 33.01875L337.5 32.14375L337.78125 32.159374Q338.34375 32.159374 338.64062 31.940624Q338.95312 31.721874 339.15625 31.128124L339.39062 30.471874L337.125 24.20625L338.3125 24.20625L339.89062 28.95625ZM347.5625 22.01875L348.70312 22.01875L348.70312 28.065624Q348.70312 29.284374 347.95312 29.9875Q347.21875 30.675 346.0 30.675Q344.73438 30.675 344.01562 30.01875Q343.3125 29.3625 343.3125 28.190624L344.4375 28.190624Q344.4375 28.925 344.82812 29.346874Q345.23438 29.753124 346.0 29.753124Q346.70312 29.753124 347.125 29.315624Q347.5625 28.8625 347.5625 28.08125L347.5625 22.01875ZM353.5 26.753124Q352.0625 26.33125 351.39062 25.721874Q350.73438 25.1125 350.73438 24.221874Q350.73438 23.221874 351.53125 22.565624Q352.34375 21.89375 353.64062 21.89375Q354.51562 21.89375 355.20312 22.2375Q355.89062 22.58125 356.26562 23.175Q356.65625 23.76875 356.65625 24.4875L355.51562 24.4875Q355.51562 23.70625 355.01562 23.26875Q354.53125 22.83125 353.64062 22.83125Q352.8125 22.83125 352.34375 23.20625Q351.875 23.565624 351.875 24.20625Q351.875 24.7375 352.3125 25.096874Q352.76562 25.45625 353.82812 25.753124Q354.89062 26.05 355.48438 26.409374Q356.09375 26.76875 356.375 27.253124Q356.67188 27.7375 356.67188 28.378124Q356.67188 29.425 355.85938 30.05Q355.04688 30.675 353.70312 30.675Q352.8125 30.675 352.04688 30.33125Q351.29688 29.9875 350.875 29.409374Q350.46875 28.815624 350.46875 28.08125L351.59375 28.08125Q351.59375 28.846874 352.17188 29.3Q352.75 29.753124 353.70312 29.753124Q354.59375 29.753124 355.0625 29.39375Q355.53125 29.01875 355.53125 28.39375Q355.53125 27.76875 355.09375 27.425Q354.65625 27.08125 353.5 26.753124ZM364.54688 26.565624Q364.54688 27.815624 364.125 28.753124Q363.70312 29.675 362.92188 30.175Q362.15625 30.675 361.125 30.675Q360.125 30.675 359.34375 30.175Q358.5625 29.675 358.125 28.76875Q357.70312 27.846874 357.6875 26.628124L357.6875 26.01875Q357.6875 24.784374 358.10938 23.846874Q358.54688 22.909374 359.32812 22.409374Q360.10938 21.89375 361.125 21.89375Q362.14062 21.89375 362.92188 22.39375Q363.70312 22.89375 364.125 23.83125Q364.54688 24.76875 364.54688 26.01875L364.54688 26.565624ZM363.4375 26.003124Q363.4375 24.4875 362.82812 23.675Q362.21875 22.8625 361.125 22.8625Q360.04688 22.8625 359.4375 23.675Q358.82812 24.4875 358.8125 25.925L358.8125 26.565624Q358.8125 28.034374 359.42188 28.878124Q360.04688 29.70625 361.125 29.70625Q362.21875 29.70625 362.8125 28.925Q363.42188 28.128124 363.4375 26.64375L363.4375 26.003124ZM372.54688 30.55L371.42188 30.55L367.125 23.971874L367.125 30.55L365.98438 30.55L365.98438 22.01875L367.125 22.01875L371.42188 28.628124L371.42188 22.01875L372.54688 22.01875L372.54688 30.55Z" fill-rule="nonzero"/></svg>