<svg version="1.1" viewBox="0.0 0.0 600.0 371.0" fill="none" stroke="none" stroke-linecap="square" stroke-miterlimit="10" width="600" height="371" xmlns:xlink="http://www.w3.org/1999/xlink" xmlns="http://www.w3.org/2000/svg"><path fill="#ffffff" d="M0 0L600.0 0L600.0 371.0L0 371.0L0 0Z" fill-rule="nonzero"/><path stroke="#333333" stroke-width="1.0" stroke-linecap="butt" d="M81.5 331.5L581.5 331.5" fill-rule="nonzero"/><path stroke="#ffffff" stroke-width="1.0" stroke-linecap="butt" d="M81.5 261.5L581.5 261.5" fill-rule="nonzero"/><path stroke="#ffffff" stroke-width="1.0" stroke-linecap="butt" d="M81.5 192.5L581.5 192.5" fill-rule="nonzero"/><path stroke="#ffffff" stroke-width="1.0" stroke-linecap="butt" d="M81.5 122.5L581.5 122.5" fill-rule="nonzero"/><path stroke="#ffffff" stroke-width="1.0" stroke-linecap="butt" d="M81.5 53.5L581.5 53.5" fill-rule="nonzero"/><clipPath id="id_0"><path d="M81.55 53.416668L581.45 53.416668L581.45 331.45L81.55 331.45L81.55 53.416668Z" clip-rule="nonzero"/></clipPath><path stroke="#000000" stroke-width="0.0" stroke-linecap="butt" stroke-opacity="0.0" clip-path="url(#id_0)" d="M181.0 331.0L134.0 331.0L134.0 284.0C134.0 282.89542 134.89543 282.0 136.0 282.0L179.0 282.0C180.10457 282.0 181.0 282.89542 181.0 284.0Z" fill-rule="nonzero"/><path fill="#4285f4" clip-path="url(#id_0)" d="M181.0 331.0L134.0 331.0L134.0 284.0C134.0 282.89542 134.89543 282.0 136.0 282.0L179.0 282.0C180.10457 282.0 181.0 282.89542 181.0 284.0Z" fill-rule="nonzero"/><path stroke="#000000" stroke-width="0.0" stroke-linecap="butt" stroke-opacity="0.0" clip-path="url(#id_0)" d="M331.0 331.0L284.0 331.0L284.0 272.0C284.0 270.89542 284.89542 270.0 286.0 270.0L329.0 270.0C330.10458 270.0 331.0 270.89542 331.0 272.0Z" fill-rule="nonzero"/><path fill="#4285f4" clip-path="url(#id_0)" d="M331.0 331.0L284.0 331.0L284.0 272.0C284.0 270.89542 284.89542 270.0 286.0 270.0L329.0 270.0C330.10458 270.0 331.0 270.89542 331.0 272.0Z" fill-rule="nonzero"/><path stroke="#000000" stroke-width="0.0" stroke-linecap="butt" stroke-opacity="0.0" clip-path="url(#id_0)" d="M480.0 331.0L433.0 331.0L433.0 263.0C433.0 261.89542 433.89542 261.0 435.0 261.0L478.0 261.0C479.10458 261.0 480.0 261.89542 480.0 263.0Z" fill-rule="nonzero"/><path fill="#4285f4" clip-path="url(#id_0)" d="M480.0 331.0L433.0 331.0L433.0 263.0C433.0 261.89542 433.89542 261.0 435.0 261.0L478.0 261.0C479.10458 261.0 480.0 261.89542 480.0 263.0Z" fill-rule="nonzero"/><path stroke="#000000" stroke-width="0.0" stroke-linecap="butt" stroke-opacity="0.0" clip-path="url(#id_0)" d="M229.0 331.0L182.0 331.0L182.0 55.0C182.0 53.89543 182.89543 53.0 184.0 53.0L227.0 53.0C228.10457 53.0 229.0 53.89543 229.0 55.0Z" fill-rule="nonzero"/><path fill="#db4437" clip-path="url(#id_0)" d="M229.0 331.0L182.0 331.0L182.0 55.0C182.0 53.89543 182.89543 53.0 184.0 53.0L227.0 53.0C228.10457 53.0 229.0 53.89543 229.0 55.0Z" fill-rule="nonzero"/><path stroke="#000000" stroke-width="0.0" stroke-linecap="butt" stroke-opacity="0.0" clip-path="url(#id_0)" d="M379.0 331.0L332.0 331.0L332.0 55.0C332.0 53.89543 332.89542 53.0 334.0 53.0L377.0 53.0C378.10458 53.0 379.0 53.89543 379.0 55.0Z" fill-rule="nonzero"/><path fill="#db4437" clip-path="url(#id_0)" d="M379.0 331.0L332.0 331.0L332.0 55.0C332.0 53.89543 332.89542 53.0 334.0 53.0L377.0 53.0C378.10458 53.0 379.0 53.89543 379.0 55.0Z" fill-rule="nonzero"/><path stroke="#000000" stroke-width="0.0" stroke-linecap="butt" stroke-opacity="0.0" clip-path="url(#id_0)" d="M528.0 331.0L481.0 331.0L481.0 55.0C481.0 53.89543 481.89542 53.0 483.0 53.0L526.0 53.0C527.10455 53.0 528.0 53.89543 528.0 55.0Z" fill-rule="nonzero"/><path fill="#db4437" clip-path="url(#id_0)" d="M528.0 331.0L481.0 331.0L481.0 55.0C481.0 53.89543 481.89542 53.0 483.0 53.0L526.0 53.0C527.10455 53.0 528.0 53.89543 528.0 55.0Z" fill-rule="nonzero"/><path fill="#424242" d="M27.206263 314.07397L30.550013 314.07397L30.550013 315.19897L22.018763 315.19897L22.018763 312.04272Q22.018763 310.6521 22.737513 309.85522Q23.440638 309.05835 24.628138 309.05835Q25.862513 309.05835 26.534388 309.8396Q27.206263 310.60522 27.206263 312.05835L27.206263 314.07397ZM26.284388 314.07397L26.284388 312.04272Q26.284388 311.13647 25.862513 310.66772Q25.440638 310.18335 24.643763 310.18335Q23.878138 310.18335 23.425013 310.66772Q22.956263 311.13647 22.940638 311.98022L22.940638 314.07397L26.284388 314.07397ZM30.550013 303.44897Q30.362513 303.54272 29.878138 303.60522Q30.675013 304.35522 30.675013 305.4021Q30.675013 306.3396 30.143763 306.94897Q29.612513 307.54272 28.784388 307.54272Q27.800013 307.54272 27.253138 306.79272Q26.706263 306.04272 26.706263 304.66772L26.706263 303.62085L26.206263 303.62085Q25.643763 303.62085 25.315638 303.9646Q24.971888 304.29272 24.971888 304.9646Q24.971888 305.54272 25.268763 305.93335Q25.550013 306.32397 25.971888 306.32397L25.971888 307.41772Q25.487513 307.41772 25.050013 307.0896Q24.612513 306.74585 24.362513 306.16772Q24.096888 305.5896 24.096888 304.9021Q24.096888 303.79272 24.643763 303.18335Q25.190638 302.55835 26.143763 302.5271L29.065638 302.5271Q29.940638 302.5271 30.456263 302.30835L30.550013 302.30835L30.550013 303.44897ZM29.721888 305.24585Q29.721888 304.73022 29.456263 304.2771Q29.190638 303.82397 28.768763 303.62085L27.471888 303.62085L27.471888 304.4646Q27.471888 306.4646 28.643763 306.4646Q29.143763 306.4646 29.440638 306.12085Q29.721888 305.7771 29.721888 305.24585ZM25.175013 297.29272Q25.143763 297.54272 25.143763 297.82397Q25.143763 298.9021 26.050013 299.2771L30.550013 299.2771L30.550013 300.35522L24.206263 300.35522L24.206263 299.30835L24.940638 299.29272Q24.096888 298.76147 24.096888 297.7771Q24.096888 297.4646 24.175013 297.29272L25.175013 297.29272ZM28.862513 292.66772Q28.425013 292.66772 28.190638 293.01147Q27.940638 293.3396 27.768763 294.16772Q27.596888 294.98022 27.346888 295.4646Q27.096888 295.94897 26.768763 296.18335Q26.425013 296.4021 25.956263 296.4021Q25.175013 296.4021 24.643763 295.74585Q24.096888 295.0896 24.096888 294.05835Q24.096888 292.98022 24.659388 292.32397Q25.206263 291.6521 26.065638 291.6521L26.065638 292.73022Q25.628138 292.73022 25.315638 293.12085Q24.987513 293.49585 24.987513 294.05835Q24.987513 294.6521 25.253138 294.99585Q25.503138 295.32397 25.909388 295.32397Q26.300013 295.32397 26.503138 295.01147Q26.706263 294.69897 26.893763 293.88647Q27.065638 293.07397 27.315638 292.57397Q27.565638 292.07397 27.925013 291.8396Q28.284388 291.5896 28.784388 291.5896Q29.643763 291.5896 30.159388 292.2771Q30.675013 292.94897 30.675013 294.0271Q30.675013 294.79272 30.409388 295.38647Q30.128138 295.9646 29.643763 296.29272Q29.159388 296.62085 28.596888 296.62085L28.596888 295.54272Q29.143763 295.51147 29.471888 295.10522Q29.784388 294.69897 29.784388 294.0271Q29.784388 293.41772 29.534388 293.04272Q29.284388 292.66772 28.862513 292.66772ZM30.550013 289.18335L30.550013 290.26147L24.206263 290.26147L24.206263 289.18335L30.550013 289.18335ZM22.534388 290.35522Q22.268763 290.35522 22.081263 290.19897Q21.893763 290.0271 21.893763 289.7146Q21.893763 289.4021 22.081263 289.24585Q22.268763 289.07397 22.534388 289.07397Q22.784388 289.07397 22.971888 289.24585Q23.143763 289.4021 23.143763 289.7146Q23.143763 290.0271 22.971888 290.19897Q22.784388 290.35522 22.534388 290.35522ZM24.206263 286.3396L25.003138 286.30835Q24.096888 285.57397 24.096888 284.4021Q24.096888 282.38647 26.362513 282.37085L30.550013 282.37085L30.550013 283.4646L26.346888 283.4646Q25.675013 283.4646 25.346888 283.7771Q25.018763 284.07397 25.018763 284.73022Q25.018763 285.26147 25.300013 285.66772Q25.581263 286.05835 26.034388 286.2771L30.550013 286.2771L30.550013 287.35522L24.206263 287.35522L24.206263 286.3396ZM27.331263 280.62085Q25.846888 280.62085 24.971888 279.93335Q24.096888 279.24585 24.096888 278.12085Q24.096888 276.9646 24.909388 276.30835L24.206263 276.26147L24.206263 275.26147L30.393763 275.26147Q31.628138 275.26147 32.33126 275.99585Q33.05001 276.73022 33.05001 277.94897Q33.05001 278.63647 32.753136 279.29272Q32.45626 279.94897 31.956263 280.29272L31.300013 279.73022Q32.159386 279.04272 32.159386 278.0271Q32.159386 277.24585 31.706263 276.80835Q31.268763 276.35522 30.456263 276.35522L29.909388 276.35522Q30.675013 277.01147 30.675013 278.13647Q30.675013 279.24585 29.784388 279.93335Q28.878138 280.62085 27.331263 280.62085ZM27.456263 279.5271Q28.518763 279.5271 29.143763 279.0896Q29.753138 278.6521 29.753138 277.85522Q29.753138 276.8396 28.815638 276.35522L25.925013 276.35522Q25.018763 276.85522 25.018763 277.85522Q25.018763 278.63647 25.628138 279.0896Q26.237513 279.5271 27.456263 279.5271ZM28.862513 266.66772Q28.425013 266.66772 28.190638 267.01147Q27.940638 267.3396 27.768763 268.16772Q27.596888 268.98022 27.346888 269.4646Q27.096888 269.94897 26.768763 270.18335Q26.425013 270.4021 25.956263 270.4021Q25.175013 270.4021 24.643763 269.74585Q24.096888 269.0896 24.096888 268.05835Q24.096888 266.98022 24.659388 266.32397Q25.206263 265.6521 26.065638 265.6521L26.065638 266.73022Q25.628138 266.73022 25.315638 267.12085Q24.987513 267.49585 24.987513 268.05835Q24.987513 268.6521 25.253138 268.99585Q25.503138 269.32397 25.909388 269.32397Q26.300013 269.32397 26.503138 269.01147Q26.706263 268.69897 26.893763 267.88647Q27.065638 267.07397 27.315638 266.57397Q27.565638 266.07397 27.925013 265.8396Q28.284388 265.5896 28.784388 265.5896Q29.643763 265.5896 30.159388 266.2771Q30.675013 266.94897 30.675013 268.0271Q30.675013 268.79272 30.409388 269.38647Q30.128138 269.9646 29.643763 270.29272Q29.159388 270.62085 28.596888 270.62085L28.596888 269.54272Q29.143763 269.51147 29.471888 269.10522Q29.784388 268.69897 29.784388 268.0271Q29.784388 267.41772 29.534388 267.04272Q29.284388 266.66772 28.862513 266.66772ZM27.456263 259.01147Q28.893763 259.01147 29.784388 259.66772Q30.675013 260.32397 30.675013 261.4646Q30.675013 262.62085 29.940638 263.2771L32.98751 263.2771L32.98751 264.35522L24.206263 264.35522L24.206263 263.37085L24.909388 263.32397Q24.096888 262.6521 24.096888 261.48022Q24.096888 260.3396 24.956263 259.68335Q25.815638 259.01147 27.346888 259.01147L27.456263 259.01147ZM27.331263 260.0896Q26.253138 260.0896 25.643763 260.55835Q25.018763 261.01147 25.018763 261.80835Q25.018763 262.79272 25.878138 263.2771L28.909388 263.2771Q29.784388 262.79272 29.784388 261.79272Q29.784388 261.01147 29.175013 260.55835Q28.550013 260.0896 27.331263 260.0896ZM30.675013 254.73021Q30.675013 256.0271 29.831263 256.8396Q28.971888 257.63647 27.550013 257.63647L27.362513 257.63647Q26.409388 257.63647 25.675013 257.2771Q24.925013 256.91772 24.518763 256.2771Q24.096888 255.62083 24.096888 254.87083Q24.096888 253.63646 24.909388 252.94896Q25.721888 252.26146 27.237513 252.26146L27.690638 252.26146L27.690638 256.55835Q28.628138 256.5271 29.206263 256.01147Q29.784388 255.48021 29.784388 254.66771Q29.784388 254.10521 29.550013 253.71458Q29.315638 253.30833 28.925013 252.99583L29.440638 252.33958Q30.675013 253.13646 30.675013 254.73021ZM24.987513 254.87083Q24.987513 255.52708 25.471888 255.98021Q25.940638 256.41772 26.800013 256.51147L26.800013 253.33958L26.721888 253.33958Q25.893763 253.38646 25.440638 253.79271Q24.987513 254.18333 24.987513 254.87083ZM30.675013 248.73021Q30.675013 250.02708 29.831263 250.83958Q28.971888 251.63646 27.550013 251.63646L27.362513 251.63646Q26.409388 251.63646 25.675013 251.27708Q24.925013 250.91771 24.518763 250.27708Q24.096888 249.62083 24.096888 248.87083Q24.096888 247.63646 24.909388 246.94896Q25.721888 246.26146 27.237513 246.26146L27.690638 246.26146L27.690638 250.55833Q28.628138 250.52708 29.206263 250.01146Q29.784388 249.48021 29.784388 248.66771Q29.784388 248.10521 29.550013 247.71458Q29.315638 247.30833 28.925013 246.99583L29.440638 246.33958Q30.675013 247.13646 30.675013 248.73021ZM24.987513 248.87083Q24.987513 249.52708 25.471888 249.98021Q25.940638 250.41771 26.800013 250.51146L26.800013 247.33958L26.721888 247.33958Q25.893763 247.38646 25.440638 247.79271Q24.987513 248.18333 24.987513 248.87083ZM27.331263 245.62083Q25.862513 245.62083 24.987513 244.93333Q24.096888 244.24583 24.096888 243.12083Q24.096888 242.01146 24.846888 241.35521L21.550013 241.35521L21.550013 240.27708L30.550013 240.27708L30.550013 241.27708L29.862513 241.32396Q30.675013 241.98021 30.675013 243.13646Q30.675013 244.23021 29.768763 244.93333Q28.862513 245.62083 27.409388 245.62083L27.331263 245.62083ZM27.456263 244.54271Q28.534388 244.54271 29.143763 244.10521Q29.753138 243.65208 29.753138 242.87083Q29.753138 241.83958 28.815638 241.35521L25.909388 241.35521Q25.018763 241.83958 25.018763 242.85521Q25.018763 243.65208 25.628138 244.10521Q26.237513 244.54271 27.456263 244.54271ZM27.081263 235.40208Q25.768763 235.40208 24.550013 235.05833Q23.331263 234.69896 22.331263 233.99583Q21.331263 233.29271 20.925013 232.52708L21.643763 232.30833Q22.300013 233.16771 23.643763 233.71458Q24.987513 234.26146 26.659388 234.30833L27.159388 234.32396Q29.425013 234.32396 31.081263 233.49583Q32.08126 232.99583 32.64376 232.30833L33.30001 232.52708Q32.878136 233.30833 31.846888 234.02708Q29.862513 235.40208 27.081263 235.40208ZM24.206263 230.33958L25.003138 230.30833Q24.096888 229.57396 24.096888 228.40208Q24.096888 226.38646 26.362513 226.37083L30.550013 226.37083L30.550013 227.46458L26.346888 227.46458Q25.675013 227.46458 25.346888 227.77708Q25.018763 228.07396 25.018763 228.73021Q25.018763 229.26146 25.300013 229.66771Q25.581263 230.05833 26.034388 230.27708L30.550013 230.27708L30.550013 231.35521L24.206263 231.35521L24.206263 230.33958ZM27.315638 224.65208Q26.393763 224.65208 25.643763 224.29271Q24.893763 223.91771 24.503138 223.26146Q24.096888 222.60521 24.096888 221.77708Q24.096888 220.48021 24.987513 219.68333Q25.878138 218.87083 27.378138 218.87083L27.456263 218.87083Q28.378138 218.87083 29.112513 219.23021Q29.846888 219.58958 30.268763 220.24583Q30.675013 220.90208 30.675013 221.76146Q30.675013 223.04271 29.784388 223.85521Q28.878138 224.65208 27.393763 224.65208L27.315638 224.65208ZM27.456263 223.55833Q28.503138 223.55833 29.143763 223.07396Q29.784388 222.57396 29.784388 221.76146Q29.784388 220.93333 29.143763 220.44896Q28.487513 219.96458 27.315638 219.96458Q26.284388 219.96458 25.643763 220.46458Q24.987513 220.94896 24.987513 221.77708Q24.987513 222.57396 25.628138 223.07396Q26.253138 223.55833 27.456263 223.55833ZM25.175013 214.29271Q25.143763 214.54271 25.143763 214.82396Q25.143763 215.90208 26.050013 216.27708L30.550013 216.27708L30.550013 217.35521L24.206263 217.35521L24.206263 216.30833L24.940638 216.29271Q24.096888 215.76146 24.096888 214.77708Q24.096888 214.46458 24.175013 214.29271L25.175013 214.29271ZM24.206263 212.33958L24.909388 212.30833Q24.096888 211.62083 24.096888 210.43333Q24.096888 209.10521 25.112513 208.62083Q24.659388 208.30833 24.378138 207.80833Q24.096888 207.29271 24.096888 206.60521Q24.096888 204.51146 26.300013 204.48021L30.550013 204.48021L30.550013 205.55833L26.362513 205.55833Q25.690638 205.55833 25.362513 205.87083Q25.018763 206.18333 25.018763 206.91771Q25.018763 207.52708 25.378138 207.93333Q25.737513 208.32396 26.346888 208.38646L30.550013 208.38646L30.550013 209.46458L26.393763 209.46458Q25.018763 209.46458 25.018763 210.82396Q25.018763 211.88646 25.925013 212.27708L30.550013 212.27708L30.550013 213.37083L24.206263 213.37083L24.206263 212.33958ZM30.550013 198.44896Q30.362513 198.54271 29.878138 198.60521Q30.675013 199.35521 30.675013 200.40208Q30.675013 201.33958 30.143763 201.94896Q29.612513 202.54271 28.784388 202.54271Q27.800013 202.54271 27.253138 201.79271Q26.706263 201.04271 26.706263 199.66771L26.706263 198.62083L26.206263 198.62083Q25.643763 198.62083 25.315638 198.96458Q24.971888 199.29271 24.971888 199.96458Q24.971888 200.54271 25.268763 200.93333Q25.550013 201.32396 25.971888 201.32396L25.971888 202.41771Q25.487513 202.41771 25.050013 202.08958Q24.612513 201.74583 24.362513 201.16771Q24.096888 200.58958 24.096888 199.90208Q24.096888 198.79271 24.643763 198.18333Q25.190638 197.55833 26.143763 197.52708L29.065638 197.52708Q29.940638 197.52708 30.456263 197.30833L30.550013 197.30833L30.550013 198.44896ZM29.721888 200.24583Q29.721888 199.73021 29.456263 199.27708Q29.190638 198.82396 28.768763 198.62083L27.471888 198.62083L27.471888 199.46458Q27.471888 201.46458 28.643763 201.46458Q29.143763 201.46458 29.440638 201.12083Q29.721888 200.77708 29.721888 200.24583ZM30.550013 194.18333L30.550013 195.26146L21.550013 195.26146L21.550013 194.18333L30.550013 194.18333ZM30.550013 191.18333L30.550013 192.26146L24.206263 192.26146L24.206263 191.18333L30.550013 191.18333ZM22.534388 192.35521Q22.268763 192.35521 22.081263 192.19896Q21.893763 192.02708 21.893763 191.71458Q21.893763 191.40208 22.081263 191.24583Q22.268763 191.07396 22.534388 191.07396Q22.784388 191.07396 22.971888 191.24583Q23.143763 191.40208 23.143763 191.71458Q23.143763 192.02708 22.971888 192.19896Q22.784388 192.35521 22.534388 192.35521ZM29.659388 188.33958L29.659388 184.63646L30.550013 184.63646L30.550013 189.66771L29.753138 189.66771L25.112513 186.16771L25.112513 189.62083L24.206263 189.62083L24.206263 184.80833L24.971888 184.80833L29.659388 188.33958ZM30.675013 180.73021Q30.675013 182.02708 29.831263 182.83958Q28.971888 183.63646 27.550013 183.63646L27.362513 183.63646Q26.409388 183.63646 25.675013 183.27708Q24.925013 182.91771 24.518763 182.27708Q24.096888 181.62083 24.096888 180.87083Q24.096888 179.63646 24.909388 178.94896Q25.721888 178.26146 27.237513 178.26146L27.690638 178.26146L27.690638 182.55833Q28.628138 182.52708 29.206263 182.01146Q29.784388 181.48021 29.784388 180.66771Q29.784388 180.10521 29.550013 179.71458Q29.315638 179.30833 28.925013 178.99583L29.440638 178.33958Q30.675013 179.13646 30.675013 180.73021ZM24.987513 180.87083Q24.987513 181.52708 25.471888 181.98021Q25.940638 182.41771 26.800013 182.51146L26.800013 179.33958L26.721888 179.33958Q25.893763 179.38646 25.440638 179.79271Q24.987513 180.18333 24.987513 180.87083ZM27.331263 177.62083Q25.862513 177.62083 24.987513 176.93333Q24.096888 176.24583 24.096888 175.12083Q24.096888 174.01146 24.846888 173.35521L21.550013 173.35521L21.550013 172.27708L30.550013 172.27708L30.550013 173.27708L29.862513 173.32396Q30.675013 173.98021 30.675013 175.13646Q30.675013 176.23021 29.768763 176.93333Q28.862513 177.62083 27.409388 177.62083L27.331263 177.62083ZM27.456263 176.54271Q28.534388 176.54271 29.143763 176.10521Q29.753138 175.65208 29.753138 174.87083Q29.753138 173.83958 28.815638 173.35521L25.909388 173.35521Q25.018763 173.83958 25.018763 174.85521Q25.018763 175.65208 25.628138 176.10521Q26.237513 176.54271 27.456263 176.54271ZM27.143763 167.85521Q28.456263 167.85521 29.659388 168.19896Q30.846888 168.54271 31.862513 169.26146Q32.878136 169.96458 33.30001 170.73021L32.64376 170.96458Q31.956263 170.05833 30.503138 169.51146Q29.034388 168.96458 27.268763 168.94896L27.081263 168.94896Q25.846888 168.94896 24.784388 169.21458Q23.721888 169.46458 22.893763 169.93333Q22.050013 170.38646 21.581263 170.96458L20.925013 170.73021Q21.346888 169.96458 22.346888 169.26146Q23.346888 168.55833 24.565638 168.21458Q25.768763 167.85521 27.143763 167.85521ZM32.253136 166.40208L31.831263 167.01146Q31.065638 166.46458 30.237513 166.43333L29.268763 166.43333L29.268763 165.37083L30.112513 165.37083Q30.706263 165.37083 31.300013 165.66771Q31.893763 165.96458 32.253136 166.40208ZM24.971888 160.27708Q24.096888 159.55833 24.096888 158.40208Q24.096888 156.38646 26.362513 156.37083L30.550013 156.37083L30.550013 157.46458L26.346888 157.46458Q25.675013 157.46458 25.346888 157.77708Q25.018763 158.07396 25.018763 158.73021Q25.018763 159.26146 25.300013 159.66771Q25.581263 160.05833 26.034388 160.27708L30.550013 160.27708L30.550013 161.35521L21.550013 161.35521L21.550013 160.27708L24.971888 160.27708ZM30.550013 153.18333L30.550013 154.26146L24.206263 154.26146L24.206263 153.18333L30.550013 153.18333ZM22.534388 154.35521Q22.268763 154.35521 22.081263 154.19896Q21.893763 154.02708 21.893763 153.71458Q21.893763 153.40208 22.081263 153.24583Q22.268763 153.07396 22.534388 153.07396Q22.784388 153.07396 22.971888 153.24583Q23.143763 153.40208 23.143763 153.71458Q23.143763 154.02708 22.971888 154.19896Q22.784388 154.35521 22.534388 154.35521ZM27.331263 151.62083Q25.846888 151.62083 24.971888 150.93333Q24.096888 150.24583 24.096888 149.12083Q24.096888 147.96458 24.909388 147.30833L24.206263 147.26146L24.206263 146.26146L30.393763 146.26146Q31.628138 146.26146 32.33126 146.99583Q33.05001 147.73021 33.05001 148.94896Q33.05001 149.63646 32.753136 150.29271Q32.45626 150.94896 31.956263 151.29271L31.300013 150.73021Q32.159386 150.04271 32.159386 149.02708Q32.159386 148.24583 31.706263 147.80833Q31.268763 147.35521 30.456263 147.35521L29.909388 147.35521Q30.675013 148.01146 30.675013 149.13646Q30.675013 150.24583 29.784388 150.93333Q28.878138 151.62083 27.331263 151.62083ZM27.456263 150.52708Q28.518763 150.52708 29.143763 150.08958Q29.753138 149.65208 29.753138 148.85521Q29.753138 147.83958 28.815638 147.35521L25.925013 147.35521Q25.018763 147.85521 25.018763 148.85521Q25.018763 149.63646 25.628138 150.08958Q26.237513 150.52708 27.456263 150.52708ZM24.971888 143.27708Q24.096888 142.55833 24.096888 141.40208Q24.096888 139.38646 26.362513 139.37083L30.550013 139.37083L30.550013 140.46458L26.346888 140.46458Q25.675013 140.46458 25.346888 140.77708Q25.018763 141.07396 25.018763 141.73021Q25.018763 142.26146 25.300013 142.66771Q25.581263 143.05833 26.034388 143.27708L30.550013 143.27708L30.550013 144.35521L21.550013 144.35521L21.550013 143.27708L24.971888 143.27708ZM30.675013 134.73021Q30.675013 136.02708 29.831263 136.83958Q28.971888 137.63646 27.550013 137.63646L27.362513 137.63646Q26.409388 137.63646 25.675013 137.27708Q24.925013 136.91771 24.518763 136.27708Q24.096888 135.62083 24.096888 134.87083Q24.096888 133.63646 24.909388 132.94896Q25.721888 132.26146 27.237513 132.26146L27.690638 132.26146L27.690638 136.55833Q28.628138 136.52708 29.206263 136.01146Q29.784388 135.48021 29.784388 134.66771Q29.784388 134.10521 29.550013 133.71458Q29.315638 133.30833 28.925013 132.99583L29.440638 132.33958Q30.675013 133.13646 30.675013 134.73021ZM24.987513 134.87083Q24.987513 135.52708 25.471888 135.98021Q25.940638 136.41771 26.800013 136.51146L26.800013 133.33958L26.721888 133.33958Q25.893763 133.38646 25.440638 133.79271Q24.987513 134.18333 24.987513 134.87083ZM25.175013 128.29271Q25.143763 128.54271 25.143763 128.82396Q25.143763 129.90208 26.050013 130.27708L30.550013 130.27708L30.550013 131.35521L24.206263 131.35521L24.206263 130.30833L24.940638 130.29271Q24.096888 129.76146 24.096888 128.77708Q24.096888 128.46458 24.175013 128.29271L25.175013 128.29271ZM30.550013 123.183334L30.550013 124.26146L24.206263 124.26146L24.206263 123.183334L30.550013 123.183334ZM22.534388 124.35521Q22.268763 124.35521 22.081263 124.19896Q21.893763 124.027084 21.893763 123.714584Q21.893763 123.402084 22.081263 123.245834Q22.268763 123.07396 22.534388 123.07396Q22.784388 123.07396 22.971888 123.245834Q23.143763 123.402084 23.143763 123.714584Q23.143763 124.027084 22.971888 124.19896Q22.784388 124.35521 22.534388 124.35521ZM28.862513 117.66771Q28.425013 117.66771 28.190638 118.01146Q27.940638 118.339584 27.768763 119.16771Q27.596888 119.98021 27.346888 120.464584Q27.096888 120.94896 26.768763 121.183334Q26.425013 121.402084 25.956263 121.402084Q25.175013 121.402084 24.643763 120.745834Q24.096888 120.089584 24.096888 119.058334Q24.096888 117.98021 24.659388 117.32396Q25.206263 116.652084 26.065638 116.652084L26.065638 117.73021Q25.628138 117.73021 25.315638 118.120834Q24.987513 118.495834 24.987513 119.058334Q24.987513 119.652084 25.253138 119.995834Q25.503138 120.32396 25.909388 120.32396Q26.300013 120.32396 26.503138 120.01146Q26.706263 119.69896 26.893763 118.88646Q27.065638 118.07396 27.315638 117.57396Q27.565638 117.07396 27.925013 116.839584Q28.284388 116.589584 28.784388 116.589584Q29.643763 116.589584 30.159388 117.277084Q30.675013 117.94896 30.675013 119.027084Q30.675013 119.79271 30.409388 120.38646Q30.128138 120.964584 29.643763 121.29271Q29.159388 121.620834 28.596888 121.620834L28.596888 120.54271Q29.143763 120.51146 29.471888 120.10521Q29.784388 119.69896 29.784388 119.027084Q29.784388 118.41771 29.534388 118.04271Q29.284388 117.66771 28.862513 117.66771ZM27.456263 106.99585Q28.909388 106.99585 29.800013 107.667725Q30.675013 108.323975 30.675013 109.448975Q30.675013 110.6521 29.815638 111.30835L30.550013 111.37085L30.550013 112.355225L21.550013 112.355225L21.550013 111.2771L24.909388 111.2771Q24.096888 110.62085 24.096888 109.4646Q24.096888 108.30835 24.971888 107.6521Q25.831263 106.99585 27.362513 106.99585L27.456263 106.99585ZM27.331263 108.073975Q26.221888 108.073975 25.628138 108.511475Q25.018763 108.93335 25.018763 109.730225Q25.018763 110.80835 26.003138 111.2771L28.753138 111.2771Q29.753138 110.7771 29.753138 109.730225Q29.753138 108.948975 29.143763 108.511475Q28.534388 108.073975 27.331263 108.073975ZM30.675013 102.730225Q30.675013 104.0271 29.831263 104.8396Q28.971888 105.636475 27.550013 105.636475L27.362513 105.636475Q26.409388 105.636475 25.675013 105.2771Q24.925013 104.917725 24.518763 104.2771Q24.096888 103.62085 24.096888 102.87085Q24.096888 101.636475 24.909388 100.948975Q25.721888 100.261475 27.237513 100.261475L27.690638 100.261475L27.690638 104.55835Q28.628138 104.5271 29.206263 104.011475Q29.784388 103.480225 29.784388 102.667725Q29.784388 102.105225 29.550013 101.7146Q29.315638 101.30835 28.925013 100.99585L29.440638 100.3396Q30.675013 101.136475 30.675013 102.730225ZM24.987513 102.87085Q24.987513 103.5271 25.471888 103.980225Q25.940638 104.417725 26.800013 104.511475L26.800013 101.3396L26.721888 101.3396Q25.893763 101.386475 25.440638 101.792725Q24.987513 102.18335 24.987513 102.87085ZM22.675013 97.886475L24.206263 97.886475L24.206263 96.7146L25.050013 96.7146L25.050013 97.886475L28.971888 97.886475Q29.362513 97.886475 29.550013 97.730225Q29.737513 97.573975 29.737513 97.198975Q29.737513 97.011475 29.675013 96.68335L30.550013 96.68335Q30.675013 97.105225 30.675013 97.511475Q30.675013 98.230225 30.237513 98.605225Q29.784388 98.980225 28.971888 98.980225L25.050013 98.980225L25.050013 100.136475L24.206263 100.136475L24.206263 98.980225L22.675013 98.980225L22.675013 97.886475ZM22.675013 93.886475L24.206263 93.886475L24.206263 92.7146L25.050013 92.7146L25.050013 93.886475L28.971888 93.886475Q29.362513 93.886475 29.550013 93.730225Q29.737513 93.573975 29.737513 93.198975Q29.737513 93.011475 29.675013 92.68335L30.550013 92.68335Q30.675013 93.105225 30.675013 93.511475Q30.675013 94.230225 30.237513 94.605225Q29.784388 94.980225 28.971888 94.980225L25.050013 94.980225L25.050013 96.136475L24.206263 96.136475L24.206263 94.980225L22.675013 94.980225L22.675013 93.886475ZM30.675013 88.730225Q30.675013 90.0271 29.831263 90.8396Q28.971888 91.636475 27.550013 91.636475L27.362513 91.636475Q26.409388 91.636475 25.675013 91.2771Q24.925013 90.917725 24.518763 90.2771Q24.096888 89.62085 24.096888 88.87085Q24.096888 87.636475 24.909388 86.948975Q25.721888 86.261475 27.237513 86.261475L27.690638 86.261475L27.690638 90.55835Q28.628138 90.5271 29.206263 90.011475Q29.784388 89.480225 29.784388 88.667725Q29.784388 88.105225 29.550013 87.7146Q29.315638 87.30835 28.925013 86.99585L29.440638 86.3396Q30.675013 87.136475 30.675013 88.730225ZM24.987513 88.87085Q24.987513 89.5271 25.471888 89.980225Q25.940638 90.417725 26.800013 90.511475L26.800013 87.3396L26.721888 87.3396Q25.893763 87.386475 25.440638 87.792725Q24.987513 88.18335 24.987513 88.87085ZM25.175013 82.292725Q25.143763 82.542725 25.143763 82.823975Q25.143763 83.9021 26.050013 84.2771L30.550013 84.2771L30.550013 85.355225L24.206263 85.355225L24.206263 84.30835L24.940638 84.292725Q24.096888 83.761475 24.096888 82.7771Q24.096888 82.4646 24.175013 82.292725L25.175013 82.292725Z" fill-rule="nonzero"/><path fill="#ffffff" d="M74.6125 332.3094Q74.6125 334.21564 73.95625 335.15314Q73.31563 336.075 71.925 336.075Q70.56563 336.075 69.90938 335.16876Q69.25313 334.2625 69.22188 332.45L69.22188 331.0125Q69.22188 329.1219 69.8625 328.21564Q70.51875 327.29376 71.90938 327.29376Q73.28438 327.29376 73.94063 328.1844Q74.59688 329.0594 74.6125 330.90314L74.6125 332.3094ZM73.51875 330.825Q73.51875 329.45 73.12813 328.825Q72.75313 328.1844 71.90938 328.1844Q71.08125 328.1844 70.69063 328.825Q70.31563 329.45 70.31563 330.7469L70.31563 332.48126Q70.31563 333.85626 70.70625 334.52814Q71.1125 335.1844 71.925 335.1844Q72.72188 335.1844 73.1125 334.5594Q73.50313 333.9344 73.51875 332.60626L73.51875 330.825Z" fill-rule="nonzero"/><path fill="#ffffff" d="M57.6125 262.80106Q57.6125 264.7073 56.95625 265.6448Q56.315624 266.56668 54.925 266.56668Q53.565624 266.56668 52.909374 265.66043Q52.253124 264.75418 52.221874 262.94168L52.221874 261.50418Q52.221874 259.61356 52.8625 258.7073Q53.51875 257.78543 54.909374 257.78543Q56.284374 257.78543 56.940624 258.67606Q57.596874 259.55106 57.6125 261.3948L57.6125 262.80106ZM56.51875 261.31668Q56.51875 259.94168 56.128124 259.31668Q55.753124 258.67606 54.909374 258.67606Q54.08125 258.67606 53.690624 259.31668Q53.315624 259.94168 53.315624 261.23856L53.315624 262.97293Q53.315624 264.34793 53.70625 265.0198Q54.1125 265.67606 54.925 265.67606Q55.721874 265.67606 56.1125 265.05106Q56.503124 264.42606 56.51875 263.09793L56.51875 261.31668ZM59.39375 265.87918Q59.39375 265.59793 59.55 265.41043Q59.721874 265.22293 60.05 265.22293Q60.39375 265.22293 60.565624 265.41043Q60.7375 265.59793 60.7375 265.87918Q60.7375 266.1448 60.565624 266.3323Q60.39375 266.50418 60.05 266.50418Q59.721874 266.50418 59.55 266.3323Q59.39375 266.1448 59.39375 265.87918ZM67.84688 266.44168L62.253124 266.44168L62.253124 265.66043L65.20625 262.37918Q65.8625 261.62918 66.1125 261.17606Q66.3625 260.7073 66.3625 260.2073Q66.3625 259.53543 65.95625 259.11356Q65.56563 258.67606 64.87813 258.67606Q64.08125 258.67606 63.628124 259.1448Q63.175 259.59793 63.175 260.42606L62.096874 260.42606Q62.096874 259.23856 62.846874 258.5198Q63.6125 257.78543 64.87813 257.78543Q66.08125 257.78543 66.76875 258.41043Q67.45625 259.03543 67.45625 260.0823Q67.45625 261.3323 65.84688 263.0823L63.565624 265.55106L67.84688 265.55106L67.84688 266.44168ZM69.75313 262.16043L70.19063 257.91043L74.56563 257.91043L74.56563 258.91043L71.1125 258.91043L70.84688 261.23856Q71.4875 260.86356 72.28438 260.86356Q73.44063 260.86356 74.12813 261.6448Q74.81563 262.41043 74.81563 263.72293Q74.81563 265.03543 74.09688 265.80106Q73.39375 266.56668 72.1125 266.56668Q70.9875 266.56668 70.26875 265.94168Q69.55 265.30106 69.45625 264.19168L70.47188 264.19168Q70.58125 264.92606 71.00313 265.30106Q71.425 265.67606 72.1125 265.67606Q72.8625 265.67606 73.3 265.16043Q73.7375 264.6448 73.7375 263.73856Q73.7375 262.87918 73.26875 262.36356Q72.8 261.84793 72.01875 261.84793Q71.31563 261.84793 70.90938 262.1448L70.62813 262.37918L69.75313 262.16043Z" fill-rule="nonzero"/><path fill="#ffffff" d="M64.6125 193.29271Q64.6125 195.19896 63.95625 196.13646Q63.315624 197.05833 61.925 197.05833Q60.565624 197.05833 59.909374 196.15208Q59.253124 195.24583 59.221874 193.43333L59.221874 191.99583Q59.221874 190.10521 59.8625 189.19896Q60.51875 188.27708 61.909374 188.27708Q63.284374 188.27708 63.940624 189.16771Q64.59688 190.04271 64.6125 191.88646L64.6125 193.29271ZM63.51875 191.80833Q63.51875 190.43333 63.128124 189.80833Q62.753124 189.16771 61.909374 189.16771Q61.08125 189.16771 60.690624 189.80833Q60.315624 190.43333 60.315624 191.73021L60.315624 193.46458Q60.315624 194.83958 60.70625 195.51146Q61.1125 196.16771 61.925 196.16771Q62.721874 196.16771 63.1125 195.54271Q63.503124 194.91771 63.51875 193.58958L63.51875 191.80833ZM66.39375 196.37083Q66.39375 196.08958 66.55 195.90208Q66.72188 195.71458 67.05 195.71458Q67.39375 195.71458 67.56563 195.90208Q67.7375 196.08958 67.7375 196.37083Q67.7375 196.63646 67.56563 196.82396Q67.39375 196.99583 67.05 196.99583Q66.72188 196.99583 66.55 196.82396Q66.39375 196.63646 66.39375 196.37083ZM69.75313 192.65208L70.19063 188.40208L74.56563 188.40208L74.56563 189.40208L71.1125 189.40208L70.84688 191.73021Q71.4875 191.35521 72.28438 191.35521Q73.44063 191.35521 74.12813 192.13646Q74.81563 192.90208 74.81563 194.21458Q74.81563 195.52708 74.09688 196.29271Q73.39375 197.05833 72.1125 197.05833Q70.9875 197.05833 70.26875 196.43333Q69.55 195.79271 69.45625 194.68333L70.47188 194.68333Q70.58125 195.41771 71.00313 195.79271Q71.425 196.16771 72.1125 196.16771Q72.8625 196.16771 73.3 195.65208Q73.7375 195.13646 73.7375 194.23021Q73.7375 193.37083 73.26875 192.85521Q72.8 192.33958 72.01875 192.33958Q71.31563 192.33958 70.90938 192.63646L70.62813 192.87083L69.75313 192.65208Z" fill-rule="nonzero"/><path fill="#ffffff" d="M57.6125 123.78438Q57.6125 125.69063 56.95625 126.62813Q56.315624 127.55 54.925 127.55Q53.565624 127.55 52.909374 126.64375Q52.253124 125.7375 52.221874 123.925L52.221874 122.4875Q52.221874 120.59688 52.8625 119.69063Q53.51875 118.76875 54.909374 118.76875Q56.284374 118.76875 56.940624 119.65938Q57.596874 120.53438 57.6125 122.37813L57.6125 123.78438ZM56.51875 122.3Q56.51875 120.925 56.128124 120.3Q55.753124 119.65938 54.909374 119.65938Q54.08125 119.65938 53.690624 120.3Q53.315624 120.925 53.315624 122.22188L53.315624 123.95625Q53.315624 125.33125 53.70625 126.00313Q54.1125 126.65938 54.925 126.65938Q55.721874 126.65938 56.1125 126.03438Q56.503124 125.40938 56.51875 124.08125L56.51875 122.3ZM59.39375 126.8625Q59.39375 126.58125 59.55 126.39375Q59.721874 126.20625 60.05 126.20625Q60.39375 126.20625 60.565624 126.39375Q60.7375 126.58125 60.7375 126.8625Q60.7375 127.12813 60.565624 127.31563Q60.39375 127.4875 60.05 127.4875Q59.721874 127.4875 59.55 127.31563Q59.39375 127.12813 59.39375 126.8625ZM67.76875 119.50313L64.2375 127.425L63.096874 127.425L66.6125 119.78438L62.003124 119.78438L62.003124 118.89375L67.76875 118.89375L67.76875 119.50313ZM69.75313 123.14375L70.19063 118.89375L74.56563 118.89375L74.56563 119.89375L71.1125 119.89375L70.84688 122.22188Q71.4875 121.84688 72.28438 121.84688Q73.44063 121.84688 74.12813 122.62813Q74.81563 123.39375 74.81563 124.70625Q74.81563 126.01875 74.09688 126.78438Q73.39375 127.55 72.1125 127.55Q70.9875 127.55 70.26875 126.925Q69.55 126.28438 69.45625 125.175L70.47188 125.175Q70.58125 125.90938 71.00313 126.28438Q71.425 126.65938 72.1125 126.65938Q72.8625 126.65938 73.3 126.14375Q73.7375 125.62813 73.7375 124.72188Q73.7375 123.8625 73.26875 123.34688Q72.8 122.83125 72.01875 122.83125Q71.31563 122.83125 70.90938 123.12813L70.62813 123.3625L69.75313 123.14375Z" fill-rule="nonzero"/><path fill="#ffffff" d="M72.81563 57.916668L71.7375 57.916668L71.7375 50.697918L69.55 51.494793L69.55 50.510418L72.65938 49.338543L72.81563 49.338543L72.81563 57.916668Z" fill-rule="nonzero"/><path fill="#757575" d="M154.573 341.575L154.573 343.10626L155.74487 343.10626L155.74487 343.95L154.573 343.95L154.573 347.8719Q154.573 348.2625 154.72925 348.45Q154.8855 348.6375 155.2605 348.6375Q155.448 348.6375 155.77612 348.575L155.77612 349.45Q155.35425 349.575 154.948 349.575Q154.22925 349.575 153.85425 349.1375Q153.47925 348.6844 153.47925 347.8719L153.47925 343.95L152.323 343.95L152.323 343.10626L153.47925 343.10626L153.47925 341.575L154.573 341.575ZM162.71362 347.95L163.93237 343.10626L165.0105 343.10626L163.16675 349.45L162.29175 349.45L160.74487 344.6375L159.24487 349.45L158.36987 349.45L156.52612 343.10626L157.60425 343.10626L158.85425 347.85626L160.33862 343.10626L161.198 343.10626L162.71362 347.95ZM167.27612 349.45L166.198 349.45L166.198 343.10626L167.27612 343.10626L167.27612 349.45ZM166.10425 341.4344Q166.10425 341.16876 166.2605 340.98126Q166.43237 340.79376 166.74487 340.79376Q167.05737 340.79376 167.21362 340.98126Q167.3855 341.16876 167.3855 341.4344Q167.3855 341.6844 167.21362 341.8719Q167.05737 342.04376 166.74487 342.04376Q166.43237 342.04376 166.2605 341.8719Q166.10425 341.6844 166.10425 341.4344ZM170.573 341.575L170.573 343.10626L171.74487 343.10626L171.74487 343.95L170.573 343.95L170.573 347.8719Q170.573 348.2625 170.72925 348.45Q170.8855 348.6375 171.2605 348.6375Q171.448 348.6375 171.77612 348.575L171.77612 349.45Q171.35425 349.575 170.948 349.575Q170.22925 349.575 169.85425 349.1375Q169.47925 348.6844 169.47925 347.8719L169.47925 343.95L168.323 343.95L168.323 343.10626L169.47925 343.10626L169.47925 341.575L170.573 341.575ZM174.573 341.575L174.573 343.10626L175.74487 343.10626L175.74487 343.95L174.573 343.95L174.573 347.8719Q174.573 348.2625 174.72925 348.45Q174.8855 348.6375 175.2605 348.6375Q175.448 348.6375 175.77612 348.575L175.77612 349.45Q175.35425 349.575 174.948 349.575Q174.22925 349.575 173.85425 349.1375Q173.47925 348.6844 173.47925 347.8719L173.47925 343.95L172.323 343.95L172.323 343.10626L173.47925 343.10626L173.47925 341.575L174.573 341.575ZM179.72925 349.575Q178.43237 349.575 177.61987 348.73126Q176.823 347.8719 176.823 346.45L176.823 346.2625Q176.823 345.3094 177.18237 344.575Q177.54175 343.825 178.18237 343.41876Q178.83862 342.9969 179.58862 342.9969Q180.823 342.9969 181.5105 343.8094Q182.198 344.6219 182.198 346.1375L182.198 346.59064L177.90112 346.59064Q177.93237 347.52814 178.448 348.10626Q178.97925 348.6844 179.79175 348.6844Q180.35425 348.6844 180.74487 348.45Q181.15112 348.21564 181.46362 347.825L182.11987 348.34064Q181.323 349.575 179.72925 349.575ZM179.58862 343.8875Q178.93237 343.8875 178.47925 344.3719Q178.04175 344.84064 177.948 345.7L181.11987 345.7L181.11987 345.6219Q181.073 344.79376 180.66675 344.34064Q180.27612 343.8875 179.58862 343.8875ZM186.16675 344.075Q185.91675 344.04376 185.6355 344.04376Q184.55737 344.04376 184.18237 344.95L184.18237 349.45L183.10425 349.45L183.10425 343.10626L184.15112 343.10626L184.16675 343.84064Q184.698 342.9969 185.68237 342.9969Q185.99487 342.9969 186.16675 343.075L186.16675 344.075ZM187.11987 348.8875Q187.11987 348.60626 187.27612 348.41876Q187.448 348.23126 187.77612 348.23126Q188.11987 348.23126 188.29175 348.41876Q188.46362 348.60626 188.46362 348.8875Q188.46362 349.15314 188.29175 349.34064Q188.11987 349.5125 187.77612 349.5125Q187.448 349.5125 187.27612 349.34064Q187.11987 349.15314 187.11987 348.8875ZM191.21362 343.10626L191.21362 350.1844Q191.21362 352.0125 189.55737 352.0125Q189.198 352.0125 188.90112 351.90314L188.90112 351.04376Q189.08862 351.09064 189.3855 351.09064Q189.74487 351.09064 189.93237 350.8875Q190.1355 350.7 190.1355 350.2L190.1355 343.10626L191.21362 343.10626ZM190.02612 341.4344Q190.02612 341.16876 190.18237 340.98126Q190.33862 340.79376 190.65112 340.79376Q190.96362 340.79376 191.11987 340.98126Q191.29175 341.16876 191.29175 341.4344Q191.29175 341.6844 191.11987 341.8719Q190.96362 342.04376 190.65112 342.04376Q190.33862 342.04376 190.18237 341.8719Q190.02612 341.6844 190.02612 341.4344ZM196.79175 347.7625Q196.79175 347.325 196.448 347.09064Q196.11987 346.84064 195.29175 346.66876Q194.47925 346.4969 193.99487 346.2469Q193.5105 345.9969 193.27612 345.66876Q193.05737 345.325 193.05737 344.85626Q193.05737 344.075 193.71362 343.54376Q194.36987 342.9969 195.40112 342.9969Q196.47925 342.9969 197.1355 343.5594Q197.80737 344.10626 197.80737 344.96564L196.72925 344.96564Q196.72925 344.52814 196.33862 344.21564Q195.96362 343.8875 195.40112 343.8875Q194.80737 343.8875 194.46362 344.15314Q194.1355 344.40314 194.1355 344.8094Q194.1355 345.2 194.448 345.40314Q194.7605 345.60626 195.573 345.79376Q196.3855 345.96564 196.8855 346.21564Q197.3855 346.46564 197.61987 346.825Q197.86987 347.1844 197.86987 347.6844Q197.86987 348.54376 197.18237 349.0594Q196.5105 349.575 195.43237 349.575Q194.66675 349.575 194.073 349.3094Q193.49487 349.02814 193.16675 348.54376Q192.83862 348.0594 192.83862 347.4969L193.91675 347.4969Q193.948 348.04376 194.35425 348.3719Q194.7605 348.6844 195.43237 348.6844Q196.04175 348.6844 196.41675 348.4344Q196.79175 348.1844 196.79175 347.7625ZM198.80737 346.21564Q198.80737 345.29376 199.16675 344.54376Q199.54175 343.79376 200.198 343.40314Q200.85425 342.9969 201.68237 342.9969Q202.97925 342.9969 203.77612 343.8875Q204.58862 344.77814 204.58862 346.27814L204.58862 346.35626Q204.58862 347.27814 204.22925 348.0125Q203.86987 348.7469 203.21362 349.16876Q202.55737 349.575 201.698 349.575Q200.41675 349.575 199.60425 348.6844Q198.80737 347.77814 198.80737 346.29376L198.80737 346.21564ZM199.90112 346.35626Q199.90112 347.40314 200.3855 348.04376Q200.8855 348.6844 201.698 348.6844Q202.52612 348.6844 203.0105 348.04376Q203.49487 347.3875 203.49487 346.21564Q203.49487 345.1844 202.99487 344.54376Q202.5105 343.8875 201.68237 343.8875Q200.8855 343.8875 200.3855 344.52814Q199.90112 345.15314 199.90112 346.35626ZM207.11987 343.10626L207.15112 343.90314Q207.8855 342.9969 209.05737 342.9969Q211.073 342.9969 211.08862 345.2625L211.08862 349.45L209.99487 349.45L209.99487 345.2469Q209.99487 344.575 209.68237 344.2469Q209.3855 343.91876 208.72925 343.91876Q208.198 343.91876 207.79175 344.2Q207.40112 344.48126 207.18237 344.9344L207.18237 349.45L206.10425 349.45L206.10425 343.10626L207.11987 343.10626Z" fill-rule="nonzero"/><path fill="#757575" d="M281.5625 346.23126Q281.5625 344.7469 282.25 343.8719Q282.9375 342.9969 284.0625 342.9969Q285.21875 342.9969 285.875 343.8094L285.92188 343.10626L286.92188 343.10626L286.92188 349.29376Q286.92188 350.52814 286.1875 351.23126Q285.45312 351.95 284.23438 351.95Q283.54688 351.95 282.89062 351.65314Q282.23438 351.35626 281.89062 350.85626L282.45312 350.2Q283.14062 351.0594 284.15625 351.0594Q284.9375 351.0594 285.375 350.60626Q285.82812 350.16876 285.82812 349.35626L285.82812 348.8094Q285.17188 349.575 284.04688 349.575Q282.9375 349.575 282.25 348.6844Q281.5625 347.77814 281.5625 346.23126ZM282.65625 346.35626Q282.65625 347.41876 283.09375 348.04376Q283.53125 348.65314 284.32812 348.65314Q285.34375 348.65314 285.82812 347.71564L285.82812 344.825Q285.32812 343.91876 284.32812 343.91876Q283.54688 343.91876 283.09375 344.52814Q282.65625 345.1375 282.65625 346.35626ZM290.0 349.45L288.92188 349.45L288.92188 343.10626L290.0 343.10626L290.0 349.45ZM288.82812 341.4344Q288.82812 341.16876 288.98438 340.98126Q289.15625 340.79376 289.46875 340.79376Q289.78125 340.79376 289.9375 340.98126Q290.10938 341.16876 290.10938 341.4344Q290.10938 341.6844 289.9375 341.8719Q289.78125 342.04376 289.46875 342.04376Q289.15625 342.04376 288.98438 341.8719Q288.82812 341.6844 288.82812 341.4344ZM293.29688 341.575L293.29688 343.10626L294.46875 343.10626L294.46875 343.95L293.29688 343.95L293.29688 347.8719Q293.29688 348.2625 293.45312 348.45Q293.60938 348.6375 293.98438 348.6375Q294.17188 348.6375 294.5 348.575L294.5 349.45Q294.07812 349.575 293.67188 349.575Q292.95312 349.575 292.57812 349.1375Q292.20312 348.6844 292.20312 347.8719L292.20312 343.95L291.04688 343.95L291.04688 343.10626L292.20312 343.10626L292.20312 341.575L293.29688 341.575ZM296.90625 343.8719Q297.625 342.9969 298.78125 342.9969Q300.79688 342.9969 300.8125 345.2625L300.8125 349.45L299.71875 349.45L299.71875 345.2469Q299.71875 344.575 299.40625 344.2469Q299.10938 343.91876 298.45312 343.91876Q297.92188 343.91876 297.51562 344.2Q297.125 344.48126 296.90625 344.9344L296.90625 349.45L295.82812 349.45L295.82812 340.45L296.90625 340.45L296.90625 343.8719ZM306.73438 348.825Q306.10938 349.575 304.875 349.575Q303.85938 349.575 303.32812 348.98126Q302.79688 348.3875 302.79688 347.23126L302.79688 343.10626L303.875 343.10626L303.875 347.2Q303.875 348.65314 305.04688 348.65314Q306.29688 348.65314 306.70312 347.71564L306.70312 343.10626L307.79688 343.10626L307.79688 349.45L306.76562 349.45L306.73438 348.825ZM315.1875 346.35626Q315.1875 347.8094 314.51562 348.7Q313.85938 349.575 312.73438 349.575Q311.53125 349.575 310.875 348.71564L310.8125 349.45L309.82812 349.45L309.82812 340.45L310.90625 340.45L310.90625 343.8094Q311.5625 342.9969 312.71875 342.9969Q313.875 342.9969 314.53125 343.8719Q315.1875 344.73126 315.1875 346.2625L315.1875 346.35626ZM314.10938 346.23126Q314.10938 345.1219 313.67188 344.52814Q313.25 343.91876 312.45312 343.91876Q311.375 343.91876 310.90625 344.90314L310.90625 347.65314Q311.40625 348.65314 312.45312 348.65314Q313.23438 348.65314 313.67188 348.04376Q314.10938 347.4344 314.10938 346.23126ZM321.39062 350.34064L316.03125 350.34064L316.03125 349.45L321.39062 349.45L321.39062 350.34064ZM324.45312 349.575Q323.15625 349.575 322.34375 348.73126Q321.54688 347.8719 321.54688 346.45L321.54688 346.2625Q321.54688 345.3094 321.90625 344.575Q322.26562 343.825 322.90625 343.41876Q323.5625 342.9969 324.3125 342.9969Q325.54688 342.9969 326.23438 343.8094Q326.92188 344.6219 326.92188 346.1375L326.92188 346.59064L322.625 346.59064Q322.65625 347.52814 323.17188 348.10626Q323.70312 348.6844 324.51562 348.6844Q325.07812 348.6844 325.46875 348.45Q325.875 348.21564 326.1875 347.825L326.84375 348.34064Q326.04688 349.575 324.45312 349.575ZM324.3125 343.8875Q323.65625 343.8875 323.20312 344.3719Q322.76562 344.84064 322.67188 345.7L325.84375 345.7L325.84375 345.6219Q325.79688 344.79376 325.39062 344.34064Q325.0 343.8875 324.3125 343.8875ZM329.90625 347.98126L331.48438 343.10626L332.59375 343.10626L330.3125 349.45L329.48438 349.45L327.1875 343.10626L328.29688 343.10626L329.90625 347.98126ZM336.45312 349.575Q335.15625 349.575 334.34375 348.73126Q333.54688 347.8719 333.54688 346.45L333.54688 346.2625Q333.54688 345.3094 333.90625 344.575Q334.26562 343.825 334.90625 343.41876Q335.5625 342.9969 336.3125 342.9969Q337.54688 342.9969 338.23438 343.8094Q338.92188 344.6219 338.92188 346.1375L338.92188 346.59064L334.625 346.59064Q334.65625 347.52814 335.17188 348.10626Q335.70312 348.6844 336.51562 348.6844Q337.07812 348.6844 337.46875 348.45Q337.875 348.21564 338.1875 347.825L338.84375 348.34064Q338.04688 349.575 336.45312 349.575ZM336.3125 343.8875Q335.65625 343.8875 335.20312 344.3719Q334.76562 344.84064 334.67188 345.7L337.84375 345.7L337.84375 345.6219Q337.79688 344.79376 337.39062 344.34064Q337.0 343.8875 336.3125 343.8875ZM340.84375 343.10626L340.875 343.90314Q341.60938 342.9969 342.78125 342.9969Q344.79688 342.9969 344.8125 345.2625L344.8125 349.45L343.71875 349.45L343.71875 345.2469Q343.71875 344.575 343.40625 344.2469Q343.10938 343.91876 342.45312 343.91876Q341.92188 343.91876 341.51562 344.2Q341.125 344.48126 340.90625 344.9344L340.90625 349.45L339.82812 349.45L339.82812 343.10626L340.84375 343.10626ZM348.29688 341.575L348.29688 343.10626L349.46875 343.10626L349.46875 343.95L348.29688 343.95L348.29688 347.8719Q348.29688 348.2625 348.45312 348.45Q348.60938 348.6375 348.98438 348.6375Q349.17188 348.6375 349.5 348.575L349.5 349.45Q349.07812 349.575 348.67188 349.575Q347.95312 349.575 347.57812 349.1375Q347.20312 348.6844 347.20312 347.8719L347.20312 343.95L346.04688 343.95L346.04688 343.10626L347.20312 343.10626L347.20312 341.575L348.29688 341.575ZM354.51562 347.7625Q354.51562 347.325 354.17188 347.09064Q353.84375 346.84064 353.01562 346.66876Q352.20312 346.4969 351.71875 346.2469Q351.23438 345.9969 351.0 345.66876Q350.78125 345.325 350.78125 344.85626Q350.78125 344.075 351.4375 343.54376Q352.09375 342.9969 353.125 342.9969Q354.20312 342.9969 354.85938 343.5594Q355.53125 344.10626 355.53125 344.96564L354.45312 344.96564Q354.45312 344.52814 354.0625 344.21564Q353.6875 343.8875 353.125 343.8875Q352.53125 343.8875 352.1875 344.15314Q351.85938 344.40314 351.85938 344.8094Q351.85938 345.2 352.17188 345.40314Q352.48438 345.60626 353.29688 345.79376Q354.10938 345.96564 354.60938 346.21564Q355.10938 346.46564 355.34375 346.825Q355.59375 347.1844 355.59375 347.6844Q355.59375 348.54376 354.90625 349.0594Q354.23438 349.575 353.15625 349.575Q352.39062 349.575 351.79688 349.3094Q351.21875 349.02814 350.89062 348.54376Q350.5625 348.0594 350.5625 347.4969L351.64062 347.4969Q351.67188 348.04376 352.07812 348.3719Q352.48438 348.6844 353.15625 348.6844Q353.76562 348.6844 354.14062 348.4344Q354.51562 348.1844 354.51562 347.7625ZM356.84375 348.8875Q356.84375 348.60626 357.0 348.41876Q357.17188 348.23126 357.5 348.23126Q357.84375 348.23126 358.01562 348.41876Q358.1875 348.60626 358.1875 348.8875Q358.1875 349.15314 358.01562 349.34064Q357.84375 349.5125 357.5 349.5125Q357.17188 349.5125 357.0 349.34064Q356.84375 349.15314 356.84375 348.8875ZM360.9375 343.10626L360.9375 350.1844Q360.9375 352.0125 359.28125 352.0125Q358.92188 352.0125 358.625 351.90314L358.625 351.04376Q358.8125 351.09064 359.10938 351.09064Q359.46875 351.09064 359.65625 350.8875Q359.85938 350.7 359.85938 350.2L359.85938 343.10626L360.9375 343.10626ZM359.75 341.4344Q359.75 341.16876 359.90625 340.98126Q360.0625 340.79376 360.375 340.79376Q360.6875 340.79376 360.84375 340.98126Q361.01562 341.16876 361.01562 341.4344Q361.01562 341.6844 360.84375 341.8719Q360.6875 342.04376 360.375 342.04376Q360.0625 342.04376 359.90625 341.8719Q359.75 341.6844 359.75 341.4344ZM366.51562 347.7625Q366.51562 347.325 366.17188 347.09064Q365.84375 346.84064 365.01562 346.66876Q364.20312 346.4969 363.71875 346.2469Q363.23438 345.9969 363.0 345.66876Q362.78125 345.325 362.78125 344.85626Q362.78125 344.075 363.4375 343.54376Q364.09375 342.9969 365.125 342.9969Q366.20312 342.9969 366.85938 343.5594Q367.53125 344.10626 367.53125 344.96564L366.45312 344.96564Q366.45312 344.52814 366.0625 344.21564Q365.6875 343.8875 365.125 343.8875Q364.53125 343.8875 364.1875 344.15314Q363.85938 344.40314 363.85938 344.8094Q363.85938 345.2 364.17188 345.40314Q364.48438 345.60626 365.29688 345.79376Q366.10938 345.96564 366.60938 346.21564Q367.10938 346.46564 367.34375 346.825Q367.59375 347.1844 367.59375 347.6844Q367.59375 348.54376 366.90625 349.0594Q366.23438 349.575 365.15625 349.575Q364.39062 349.575 363.79688 349.3094Q363.21875 349.02814 362.89062 348.54376Q362.5625 348.0594 362.5625 347.4969L363.64062 347.4969Q363.67188 348.04376 364.07812 348.3719Q364.48438 348.6844 365.15625 348.6844Q365.76562 348.6844 366.14062 348.4344Q366.51562 348.1844 366.51562 347.7625ZM368.53125 346.21564Q368.53125 345.29376 368.89062 344.54376Q369.26562 343.79376 369.92188 343.40314Q370.57812 342.9969 371.40625 342.9969Q372.70312 342.9969 373.5 343.8875Q374.3125 344.77814 374.3125 346.27814L374.3125 346.35626Q374.3125 347.27814 373.95312 348.0125Q373.59375 348.7469 372.9375 349.16876Q372.28125 349.575 371.42188 349.575Q370.14062 349.575 369.32812 348.6844Q368.53125 347.77814 368.53125 346.29376L368.53125 346.21564ZM369.625 346.35626Q369.625 347.40314 370.10938 348.04376Q370.60938 348.6844 371.42188 348.6844Q372.25 348.6844 372.73438 348.04376Q373.21875 347.3875 373.21875 346.21564Q373.21875 345.1844 372.71875 344.54376Q372.23438 343.8875 371.40625 343.8875Q370.60938 343.8875 370.10938 344.52814Q369.625 345.15314 369.625 346.35626ZM376.84375 343.10626L376.875 343.90314Q377.60938 342.9969 378.78125 342.9969Q380.79688 342.9969 380.8125 345.2625L380.8125 349.45L379.71875 349.45L379.71875 345.2469Q379.71875 344.575 379.40625 344.2469Q379.10938 343.91876 378.45312 343.91876Q377.92188 343.91876 377.51562 344.2Q377.125 344.48126 376.90625 344.9344L376.90625 349.45L375.82812 349.45L375.82812 343.10626L376.84375 343.10626Z" fill-rule="nonzero"/><path fill="#757575" d="M433.45825 349.45Q433.3645 349.2625 433.302 348.77814Q432.552 349.575 431.50513 349.575Q430.56763 349.575 429.95825 349.04376Q429.3645 348.5125 429.3645 347.6844Q429.3645 346.7 430.1145 346.15314Q430.8645 345.60626 432.2395 345.60626L433.28638 345.60626L433.28638 345.10626Q433.28638 344.54376 432.94263 344.21564Q432.6145 343.8719 431.94263 343.8719Q431.3645 343.8719 430.97388 344.16876Q430.58325 344.45 430.58325 344.8719L429.4895 344.8719Q429.4895 344.3875 429.81763 343.95Q430.16138 343.5125 430.7395 343.2625Q431.31763 342.9969 432.00513 342.9969Q433.1145 342.9969 433.72388 343.54376Q434.34888 344.09064 434.38013 345.04376L434.38013 347.96564Q434.38013 348.84064 434.59888 349.35626L434.59888 349.45L433.45825 349.45ZM431.66138 348.6219Q432.177 348.6219 432.63013 348.35626Q433.08325 348.09064 433.28638 347.66876L433.28638 346.3719L432.44263 346.3719Q430.44263 346.3719 430.44263 347.54376Q430.44263 348.04376 430.78638 348.34064Q431.13013 348.6219 431.66138 348.6219ZM441.89575 346.35626Q441.89575 347.79376 441.2395 348.6844Q440.58325 349.575 439.44263 349.575Q438.28638 349.575 437.63013 348.84064L437.63013 351.8875L436.552 351.8875L436.552 343.10626L437.53638 343.10626L437.58325 343.8094Q438.25513 342.9969 439.427 342.9969Q440.56763 342.9969 441.22388 343.85626Q441.89575 344.71564 441.89575 346.2469L441.89575 346.35626ZM440.81763 346.23126Q440.81763 345.15314 440.34888 344.54376Q439.89575 343.91876 439.09888 343.91876Q438.1145 343.91876 437.63013 344.77814L437.63013 347.8094Q438.1145 348.6844 439.1145 348.6844Q439.89575 348.6844 440.34888 348.075Q440.81763 347.45 440.81763 346.23126ZM447.45825 349.45Q447.3645 349.2625 447.302 348.77814Q446.552 349.575 445.50513 349.575Q444.56763 349.575 443.95825 349.04376Q443.3645 348.5125 443.3645 347.6844Q443.3645 346.7 444.1145 346.15314Q444.8645 345.60626 446.2395 345.60626L447.28638 345.60626L447.28638 345.10626Q447.28638 344.54376 446.94263 344.21564Q446.6145 343.8719 445.94263 343.8719Q445.3645 343.8719 444.97388 344.16876Q444.58325 344.45 444.58325 344.8719L443.4895 344.8719Q443.4895 344.3875 443.81763 343.95Q444.16138 343.5125 444.7395 343.2625Q445.31763 342.9969 446.00513 342.9969Q447.1145 342.9969 447.72388 343.54376Q448.34888 344.09064 448.38013 345.04376L448.38013 347.96564Q448.38013 348.84064 448.59888 349.35626L448.59888 349.45L447.45825 349.45ZM445.66138 348.6219Q446.177 348.6219 446.63013 348.35626Q447.08325 348.09064 447.28638 347.66876L447.28638 346.3719L446.44263 346.3719Q444.44263 346.3719 444.44263 347.54376Q444.44263 348.04376 444.78638 348.34064Q445.13013 348.6219 445.66138 348.6219ZM453.08325 348.6844Q453.66138 348.6844 454.09888 348.34064Q454.53638 347.98126 454.58325 347.45L455.6145 347.45Q455.58325 347.9969 455.22388 348.4969Q454.88013 348.98126 454.302 349.27814Q453.7395 349.575 453.08325 349.575Q451.78638 349.575 451.02075 348.71564Q450.27075 347.84064 450.27075 346.34064L450.27075 346.15314Q450.27075 345.23126 450.59888 344.5125Q450.94263 343.79376 451.56763 343.40314Q452.20825 342.9969 453.08325 342.9969Q454.14575 342.9969 454.84888 343.6375Q455.56763 344.2625 455.6145 345.29376L454.58325 345.29376Q454.53638 344.66876 454.1145 344.27814Q453.69263 343.8875 453.08325 343.8875Q452.25513 343.8875 451.802 344.48126Q451.34888 345.075 451.34888 346.2L451.34888 346.40314Q451.34888 347.4969 451.802 348.09064Q452.25513 348.6844 453.08325 348.6844ZM457.63013 343.8719Q458.34888 342.9969 459.50513 342.9969Q461.52075 342.9969 461.53638 345.2625L461.53638 349.45L460.44263 349.45L460.44263 345.2469Q460.44263 344.575 460.13013 344.2469Q459.83325 343.91876 459.177 343.91876Q458.64575 343.91876 458.2395 344.2Q457.84888 344.48126 457.63013 344.9344L457.63013 349.45L456.552 349.45L456.552 340.45L457.63013 340.45L457.63013 343.8719ZM466.177 349.575Q464.88013 349.575 464.06763 348.73126Q463.27075 347.8719 463.27075 346.45L463.27075 346.2625Q463.27075 345.3094 463.63013 344.575Q463.9895 343.825 464.63013 343.41876Q465.28638 342.9969 466.03638 342.9969Q467.27075 342.9969 467.95825 343.8094Q468.64575 344.6219 468.64575 346.1375L468.64575 346.59064L464.34888 346.59064Q464.38013 347.52814 464.89575 348.10626Q465.427 348.6844 466.2395 348.6844Q466.802 348.6844 467.19263 348.45Q467.59888 348.21564 467.91138 347.825L468.56763 348.34064Q467.77075 349.575 466.177 349.575ZM466.03638 343.8875Q465.38013 343.8875 464.927 344.3719Q464.4895 344.84064 464.39575 345.7L467.56763 345.7L467.56763 345.6219Q467.52075 344.79376 467.1145 344.34064Q466.72388 343.8875 466.03638 343.8875ZM474.1145 350.34064L468.75513 350.34064L468.75513 349.45L474.1145 349.45L474.1145 350.34064ZM479.91138 346.35626Q479.91138 347.8094 479.2395 348.7Q478.58325 349.575 477.45825 349.575Q476.25513 349.575 475.59888 348.71564L475.53638 349.45L474.552 349.45L474.552 340.45L475.63013 340.45L475.63013 343.8094Q476.28638 342.9969 477.44263 342.9969Q478.59888 342.9969 479.25513 343.8719Q479.91138 344.73126 479.91138 346.2625L479.91138 346.35626ZM478.83325 346.23126Q478.83325 345.1219 478.39575 344.52814Q477.97388 343.91876 477.177 343.91876Q476.09888 343.91876 475.63013 344.90314L475.63013 347.65314Q476.13013 348.65314 477.177 348.65314Q477.95825 348.65314 478.39575 348.04376Q478.83325 347.4344 478.83325 346.23126ZM485.45825 348.825Q484.83325 349.575 483.59888 349.575Q482.58325 349.575 482.052 348.98126Q481.52075 348.3875 481.52075 347.23126L481.52075 343.10626L482.59888 343.10626L482.59888 347.2Q482.59888 348.65314 483.77075 348.65314Q485.02075 348.65314 485.427 347.71564L485.427 343.10626L486.52075 343.10626L486.52075 349.45L485.4895 349.45L485.45825 348.825ZM489.72388 349.45L488.64575 349.45L488.64575 343.10626L489.72388 343.10626L489.72388 349.45ZM488.552 341.4344Q488.552 341.16876 488.70825 340.98126Q488.88013 340.79376 489.19263 340.79376Q489.50513 340.79376 489.66138 340.98126Q489.83325 341.16876 489.83325 341.4344Q489.83325 341.6844 489.66138 341.8719Q489.50513 342.04376 489.19263 342.04376Q488.88013 342.04376 488.70825 341.8719Q488.552 341.6844 488.552 341.4344ZM492.72388 349.45L491.64575 349.45L491.64575 340.45L492.72388 340.45L492.72388 349.45ZM494.28638 346.23126Q494.28638 344.7625 494.97388 343.8875Q495.66138 342.9969 496.78638 342.9969Q497.89575 342.9969 498.552 343.7469L498.552 340.45L499.63013 340.45L499.63013 349.45L498.63013 349.45L498.58325 348.7625Q497.927 349.575 496.77075 349.575Q495.677 349.575 494.97388 348.66876Q494.28638 347.7625 494.28638 346.3094L494.28638 346.23126ZM495.3645 346.35626Q495.3645 347.4344 495.802 348.04376Q496.25513 348.65314 497.03638 348.65314Q498.06763 348.65314 498.552 347.71564L498.552 344.8094Q498.06763 343.91876 497.052 343.91876Q496.25513 343.91876 495.802 344.52814Q495.3645 345.1375 495.3645 346.35626ZM505.2395 347.7625Q505.2395 347.325 504.89575 347.09064Q504.56763 346.84064 503.7395 346.66876Q502.927 346.4969 502.44263 346.2469Q501.95825 345.9969 501.72388 345.66876Q501.50513 345.325 501.50513 344.85626Q501.50513 344.075 502.16138 343.54376Q502.81763 342.9969 503.84888 342.9969Q504.927 342.9969 505.58325 343.5594Q506.25513 344.10626 506.25513 344.96564L505.177 344.96564Q505.177 344.52814 504.78638 344.21564Q504.41138 343.8875 503.84888 343.8875Q503.25513 343.8875 502.91138 344.15314Q502.58325 344.40314 502.58325 344.8094Q502.58325 345.2 502.89575 345.40314Q503.20825 345.60626 504.02075 345.79376Q504.83325 345.96564 505.33325 346.21564Q505.83325 346.46564 506.06763 346.825Q506.31763 347.1844 506.31763 347.6844Q506.31763 348.54376 505.63013 349.0594Q504.95825 349.575 503.88013 349.575Q503.1145 349.575 502.52075 349.3094Q501.94263 349.02814 501.6145 348.54376Q501.28638 348.0594 501.28638 347.4969L502.3645 347.4969Q502.39575 348.04376 502.802 348.3719Q503.20825 348.6844 503.88013 348.6844Q504.4895 348.6844 504.8645 348.4344Q505.2395 348.1844 505.2395 347.7625ZM507.56763 348.8875Q507.56763 348.60626 507.72388 348.41876Q507.89575 348.23126 508.22388 348.23126Q508.56763 348.23126 508.7395 348.41876Q508.91138 348.60626 508.91138 348.8875Q508.91138 349.15314 508.7395 349.34064Q508.56763 349.5125 508.22388 349.5125Q507.89575 349.5125 507.72388 349.34064Q507.56763 349.15314 507.56763 348.8875ZM511.66138 343.10626L511.66138 350.1844Q511.66138 352.0125 510.00513 352.0125Q509.64575 352.0125 509.34888 351.90314L509.34888 351.04376Q509.53638 351.09064 509.83325 351.09064Q510.19263 351.09064 510.38013 350.8875Q510.58325 350.7 510.58325 350.2L510.58325 343.10626L511.66138 343.10626ZM510.47388 341.4344Q510.47388 341.16876 510.63013 340.98126Q510.78638 340.79376 511.09888 340.79376Q511.41138 340.79376 511.56763 340.98126Q511.7395 341.16876 511.7395 341.4344Q511.7395 341.6844 511.56763 341.8719Q511.41138 342.04376 511.09888 342.04376Q510.78638 342.04376 510.63013 341.8719Q510.47388 341.6844 510.47388 341.4344ZM517.2395 347.7625Q517.2395 347.325 516.89575 347.09064Q516.5676 346.84064 515.7395 346.66876Q514.927 346.4969 514.4426 346.2469Q513.95825 345.9969 513.7239 345.66876Q513.5051 345.325 513.5051 344.85626Q513.5051 344.075 514.1614 343.54376Q514.8176 342.9969 515.8489 342.9969Q516.927 342.9969 517.58325 343.5594Q518.2551 344.10626 518.2551 344.96564L517.177 344.96564Q517.177 344.52814 516.7864 344.21564Q516.4114 343.8875 515.8489 343.8875Q515.2551 343.8875 514.9114 344.15314Q514.58325 344.40314 514.58325 344.8094Q514.58325 345.2 514.89575 345.40314Q515.20825 345.60626 516.02075 345.79376Q516.83325 345.96564 517.33325 346.21564Q517.83325 346.46564 518.0676 346.825Q518.3176 347.1844 518.3176 347.6844Q518.3176 348.54376 517.6301 349.0594Q516.95825 349.575 515.8801 349.575Q515.1145 349.575 514.52075 349.3094Q513.9426 349.02814 513.6145 348.54376Q513.2864 348.0594 513.2864 347.4969L514.3645 347.4969Q514.39575 348.04376 514.802 348.3719Q515.20825 348.6844 515.8801 348.6844Q516.4895 348.6844 516.8645 348.4344Q517.2395 348.1844 517.2395 347.7625ZM519.2551 346.21564Q519.2551 345.29376 519.6145 344.54376Q519.9895 343.79376 520.64575 343.40314Q521.302 342.9969 522.1301 342.9969Q523.427 342.9969 524.2239 343.8875Q525.0364 344.77814 525.0364 346.27814L525.0364 346.35626Q525.0364 347.27814 524.677 348.0125Q524.3176 348.7469 523.6614 349.16876Q523.0051 349.575 522.14575 349.575Q520.8645 349.575 520.052 348.6844Q519.2551 347.77814 519.2551 346.29376L519.2551 346.21564ZM520.3489 346.35626Q520.3489 347.40314 520.83325 348.04376Q521.33325 348.6844 522.14575 348.6844Q522.9739 348.6844 523.45825 348.04376Q523.9426 347.3875 523.9426 346.21564Q523.9426 345.1844 523.4426 344.54376Q522.95825 343.8875 522.1301 343.8875Q521.33325 343.8875 520.83325 344.52814Q520.3489 345.15314 520.3489 346.35626ZM527.5676 343.10626L527.5989 343.90314Q528.33325 342.9969 529.5051 342.9969Q531.52075 342.9969 531.5364 345.2625L531.5364 349.45L530.4426 349.45L530.4426 345.2469Q530.4426 344.575 530.1301 344.2469Q529.83325 343.91876 529.177 343.91876Q528.64575 343.91876 528.2395 344.2Q527.8489 344.48126 527.6301 344.9344L527.6301 349.45L526.552 349.45L526.552 343.10626L527.5676 343.10626Z" fill-rule="nonzero"/><path fill="#4285f4" d="M226.0 21.05C226.0 20.497715 226.44771 20.05 227.0 20.05L237.0 20.05C237.55229 20.05 238.0 20.497715 238.0 21.05L238.0 31.05C238.0 31.602285 237.55229 32.05 237.0 32.05L227.0 32.05C226.44771 32.05 226.0 31.602285 226.0 31.05Z" fill-rule="nonzero"/><path fill="#757575" d="M251.70312 28.315624L248.125 28.315624L247.32812 30.55L246.17188 30.55L249.42188 22.01875L250.40625 22.01875L253.67188 30.55L252.51562 30.55L251.70312 28.315624ZM248.46875 27.39375L251.375 27.39375L249.92188 23.409374L248.46875 27.39375ZM260.17188 27.45625Q260.17188 28.89375 259.51562 29.784374Q258.85938 30.675 257.71875 30.675Q256.5625 30.675 255.90625 29.940624L255.90625 32.9875L254.82812 32.9875L254.82812 24.20625L255.8125 24.20625L255.85938 24.909374Q256.53125 24.096874 257.70312 24.096874Q258.84375 24.096874 259.5 24.95625Q260.17188 25.815624 260.17188 27.346874L260.17188 27.45625ZM259.09375 27.33125Q259.09375 26.253124 258.625 25.64375Q258.17188 25.01875 257.375 25.01875Q256.39062 25.01875 255.90625 25.878124L255.90625 28.909374Q256.39062 29.784374 257.39062 29.784374Q258.17188 29.784374 258.625 29.175Q259.09375 28.55 259.09375 27.33125ZM267.17188 27.45625Q267.17188 28.89375 266.51562 29.784374Q265.85938 30.675 264.71875 30.675Q263.5625 30.675 262.90625 29.940624L262.90625 32.9875L261.82812 32.9875L261.82812 24.20625L262.8125 24.20625L262.85938 24.909374Q263.53125 24.096874 264.70312 24.096874Q265.84375 24.096874 266.5 24.95625Q267.17188 25.815624 267.17188 27.346874L267.17188 27.45625ZM266.09375 27.33125Q266.09375 26.253124 265.625 25.64375Q265.17188 25.01875 264.375 25.01875Q263.39062 25.01875 262.90625 25.878124L262.90625 28.909374Q263.39062 29.784374 264.39062 29.784374Q265.17188 29.784374 265.625 29.175Q266.09375 28.55 266.09375 27.33125ZM270.0 30.55L268.92188 30.55L268.92188 21.55L270.0 21.55L270.0 30.55ZM274.45312 30.675Q273.15625 30.675 272.34375 29.83125Q271.54688 28.971874 271.54688 27.55L271.54688 27.3625Q271.54688 26.409374 271.90625 25.675Q272.26562 24.925 272.90625 24.51875Q273.5625 24.096874 274.3125 24.096874Q275.54688 24.096874 276.23438 24.909374Q276.92188 25.721874 276.92188 27.2375L276.92188 27.690624L272.625 27.690624Q272.65625 28.628124 273.17188 29.20625Q273.70312 29.784374 274.51562 29.784374Q275.07812 29.784374 275.46875 29.55Q275.875 29.315624 276.1875 28.925L276.84375 29.440624Q276.04688 30.675 274.45312 30.675ZM274.3125 24.9875Q273.65625 24.9875 273.20312 25.471874Q272.76562 25.940624 272.67188 26.8L275.84375 26.8L275.84375 26.721874Q275.79688 25.89375 275.39062 25.440624Q275.0 24.9875 274.3125 24.9875Z" fill-rule="nonzero"/><path fill="#db4437" d="M293.0 21.05C293.0 20.497715 293.44772 20.05 294.0 20.05L304.0 20.05C304.55228 20.05 305.0 20.497715 305.0 21.05L305.0 31.05C305.0 31.602285 304.55228 32.05 304.0 32.05L294.0 32.05C293.44772 32.05 293.0 31.602285 293.0 31.05Z" fill-rule="nonzero"/><path fill="#757575" d="M314.82812 29.628124L319.71875 29.628124L319.71875 30.55L313.5 30.55L313.5 29.70625L318.1875 22.940624L313.57812 22.940624L313.57812 22.01875L319.53125 22.01875L319.53125 22.846874L314.82812 29.628124ZM322.0 30.55L320.92188 30.55L320.92188 24.20625L322.0 24.20625L322.0 30.55ZM320.82812 22.534374Q320.82812 22.26875 320.98438 22.08125Q321.15625 21.89375 321.46875 21.89375Q321.78125 21.89375 321.9375 22.08125Q322.10938 22.26875 322.10938 22.534374Q322.10938 22.784374 321.9375 22.971874Q321.78125 23.14375 321.46875 23.14375Q321.15625 23.14375 320.98438 22.971874Q320.82812 22.784374 320.82812 22.534374ZM329.17188 27.45625Q329.17188 28.89375 328.51562 29.784374Q327.85938 30.675 326.71875 30.675Q325.5625 30.675 324.90625 29.940624L324.90625 32.9875L323.82812 32.9875L323.82812 24.20625L324.8125 24.20625L324.85938 24.909374Q325.53125 24.096874 326.70312 24.096874Q327.84375 24.096874 328.5 24.95625Q329.17188 25.815624 329.17188 27.346874L329.17188 27.45625ZM328.09375 27.33125Q328.09375 26.253124 327.625 25.64375Q327.17188 25.01875 326.375 25.01875Q325.39062 25.01875 324.90625 25.878124L324.90625 28.909374Q325.39062 29.784374 326.39062 29.784374Q327.17188 29.784374 327.625 29.175Q328.09375 28.55 328.09375 27.33125ZM336.17188 27.45625Q336.17188 28.89375 335.51562 29.784374Q334.85938 30.675 333.71875 30.675Q332.5625 30.675 331.90625 29.940624L331.90625 32.9875L330.82812 32.9875L330.82812 24.20625L331.8125 24.20625L331.85938 24.909374Q332.53125 24.096874 333.70312 24.096874Q334.84375 24.096874 335.5 24.95625Q336.17188 25.815624 336.17188 27.346874L336.17188 27.45625ZM335.09375 27.33125Q335.09375 26.253124 334.625 25.64375Q334.17188 25.01875 333.375 25.01875Q332.39062 25.01875 331.90625 25.878124L331.90625 28.909374Q332.39062 29.784374 333.39062 29.784374Q334.17188 29.784374 334.625 29.175Q335.09375 28.55 335.09375 27.33125ZM339.89062 28.95625L341.375 24.20625L342.53125 24.20625L339.98438 31.534374Q339.39062 33.1125 338.10938 33.1125L337.89062 33.096874L337.5 33.01875L337.5 32.14375L337.78125 32.159374Q338.34375 32.159374 338.64062 31.940624Q338.95312 31.721874 339.15625 31.128124L339.39062 30.471874L337.125 24.20625L338.3125 24.20625L339.89062 28.95625ZM347.5625 22.01875L348.70312 22.01875L348.70312 28.065624Q348.70312 29.284374 347.95312 29.9875Q347.21875 30.675 346.0 30.675Q344.73438 30.675 344.01562 30.01875Q343.3125 29.3625 343.3125 28.190624L344.4375 28.190624Q344.4375 28.925 344.82812 29.346874Q345.23438 29.753124 346.0 29.753124Q346.70312 29.753124 347.125 29.315624Q347.5625 28.8625 347.5625 28.08125L347.5625 22.01875ZM353.5 26.753124Q352.0625 26.33125 351.39062 25.721874Q350.73438 25.1125 350.73438 24.221874Q350.73438 23.221874 351.53125 22.565624Q352.34375 21.89375 353.64062 21.89375Q354.51562 21.89375 355.20312 22.2375Q355.89062 22.58125 356.26562 23.175Q356.65625 23.76875 356.65625 24.4875L355.51562 24.4875Q355.51562 23.70625 355.01562 23.26875Q354.53125 22.83125 353.64062 22.83125Q352.8125 22.83125 352.34375 23.20625Q351.875 23.565624 351.875 24.20625Q351.875 24.7375 352.3125 25.096874Q352.76562 25.45625 353.82812 25.753124Q354.89062 26.05 355.48438 26.409374Q356.09375 26.76875 356.375 27.253124Q356.67188 27.7375 356.67188 28.378124Q356.67188 29.425 355.85938 30.05Q355.04688 30.675 353.70312 30.675Q352.8125 30.675 352.04688 30.33125Q351.29688 29.9875 350.875 29.409374Q350.46875 28.815624 350.46875 28.08125L351.59375 28.08125Q351.59375 28.846874 352.17188 29.3Q352.75 29.753124 353.70312 29.753124Q354.59375 29.753124 355.0625 29.39375Q355.53125 29.01875 355.53125 28.39375Q355.53125 27.76875 355.09375 27.425Q354.65625 27.08125 353.5 26.753124ZM364.54688 26.565624Q364.54688 27.815624 364.125 28.753124Q363.70312 29.675 362.92188 30.175Q362.15625 30.675 361.125 30.675Q360.125 30.675 359.34375 30.175Q358.5625 29.675 358.125 28.76875Q357.70312 27.846874 357.6875 26.628124L357.6875 26.01875Q357.6875 24.784374 358.10938 23.846874Q358.54688 22.909374 359.32812 22.409374Q360.10938 21.89375 361.125 21.89375Q362.14062 21.89375 362.92188 22.39375Q363.70312 22.89375 364.125 23.83125Q364.54688 24.76875 364.54688 26.01875L364.54688 26.565624ZM363.4375 26.003124Q363.4375 24.4875 362.82812 23.675Q362.21875 22.8625 361.125 22.8625Q360.04688 22.8625 359.4375 23.675Q358.82812 24.4875 358.8125 25.925L358.8125 26.565624Q358.8125 28.034374 359.42188 28.878124Q360.04688 29.70625 361.125 29.70625Q362.21875 29.70625 362.8125 28.925Q363.42188 28.128124 363.4375 26.64375L363.4375 26.003124ZM372.54688 30.55L371.42188 30.55L367.125 23.971874L367.125 30.55L365.98438 30.55L365.98438 22.01875L367.125 22.01875L371.42188 28.628124L371.42188 22.01875L372.54688 22.01875L372.54688 30.55Z" fill-rule="nonzero"/></svg>